<?xml version="1.0" encoding="utf-8"?>
<!-- Generator: Adobe Illustrator 26.0.3, SVG Export Plug-In . SVG Version: 6.00 Build 0)  -->
<svg version="1.0" id="katman_1" xmlns="http://www.w3.org/2000/svg" xmlns:xlink="http://www.w3.org/1999/xlink" x="0px" y="0px"
	 viewBox="0 0 600 450" style="enable-background:new 0 0 600 450;" xml:space="preserve">
<style type="text/css">
	.st0{fill:#131226;}
</style>
<g id="Roundel">
	<path class="st0" d="M317,300c-1.8,0.8-3.7,1.2-5.7,1.2c-2.3,0.2-4.5-0.8-6-2.5c-1.3-2-1.9-4.4-1.7-6.7c0-3.3,0.8-5.8,2.3-7.4
		c1.6-1.4,3.7-2.1,5.8-1.9c1.6,0,3.1,0.2,4.6,0.5l-0.2,2.9c-1.3-0.2-2.7-0.3-4-0.3c-1.3-0.2-2.6,0.3-3.6,1.2c-1,1.5-1.4,3.2-1.2,5
		c-0.1,1.5,0.2,3,0.8,4.4c0.8,1.2,2.2,1.8,3.6,1.7c1.5-0.1,3-0.3,4.4-0.8L317,300z"/>
	<path class="st0" d="M318.7,300.9v-18h11.1v3.1h-7.6v4.2h6.3v3h-6.3v4.6h7.6v3.1L318.7,300.9L318.7,300.9z"/>
	<path class="st0" d="M341.2,300.9c-1.3-2.4-2.4-4.6-3.5-6.9c-0.8,0-1.8,0-2.5,0v7h-3.5v-17.9c1.9-0.2,3.8-0.3,5.6-0.4
		c3.7,0,7.1,0.9,7.1,5.5c0.2,2.3-1.2,4.5-3.4,5.2c1,2.1,2.6,4.8,4.2,7.4L341.2,300.9L341.2,300.9z M335.3,291.3
		c1.3,0.1,2.5,0,3.8-0.3c1.3-0.3,2.1-1.5,1.9-2.8c0-2.2-1.5-2.5-3.3-2.5c-0.8,0-1.7,0-2.4,0L335.3,291.3L335.3,291.3z"/>
	<path class="st0" d="M349.9,300.9V286h-4.8v-3.1h13.2v3.1h-4.8v14.9H349.9z"/>
	<path class="st0" d="M359.6,300.9v-18h3.5v18H359.6z"/>
	<path class="st0" d="M366,300.9v-18h11.4v3.1h-7.9v4.5h6.5v3h-6.5v7.4L366,300.9L366,300.9z"/>
	<path class="st0" d="M379.1,300.9v-18h3.5v18H379.1z"/>
	<path class="st0" d="M385.5,300.9v-18h11.2v3.1h-7.7v4.2h6.3v3h-6.3v4.6h7.7v3.1L385.5,300.9L385.5,300.9z"/>
	<path class="st0" d="M398.5,283.1c1.9-0.3,3.7-0.5,5.6-0.5c6.1,0,8.2,3.1,8.2,9.2c0,6.1-2.1,9.3-8.2,9.3c-1.9,0-3.7-0.1-5.6-0.3
		V283.1z M402,298c0.8,0,1.1,0,1.8,0c4,0,4.9-1.7,4.9-6.2c0-4.2-1-6.2-4.9-6.2c-0.6,0-1.2,0-1.8,0V298z"/>
	<path class="st0" d="M305.3,169.6v-22.9h3.4v22.9H305.3z"/>
	<path class="st0" d="M312.4,166.4c1.8,0.3,3.6,0.5,5.4,0.5c1.7,0.2,3.5-0.3,4.9-1.3c0.6-0.6,1-1.5,1-2.4c0-2.2-1.4-3-5.3-4.2
		s-6.5-2.8-6.5-6.7c0-1.8,0.8-3.5,2.2-4.6c1.7-1.1,3.7-1.7,5.7-1.5c2.1,0,4.2,0.3,6.3,0.7l-0.4,2.8c-1.8-0.3-3.5-0.5-5.3-0.5
		c-1.4-0.1-2.7,0.2-3.9,0.8c-0.7,0.5-1.1,1.3-1.1,2.1c0,2.4,1.8,3.1,5.6,4.2c3.8,1.1,6.2,2.7,6.2,6.7c0.1,1.9-0.8,3.8-2.3,5
		c-1.9,1.2-4.1,1.8-6.3,1.7c-2.2,0-4.4-0.3-6.5-0.7L312.4,166.4z"/>
	<path class="st0" d="M328.7,158.2c0-7.7,3-11.8,9.9-11.8s9.9,4.1,9.9,11.8c0,7.8-2.9,11.8-9.9,11.8S328.7,165.9,328.7,158.2z
		 M345,158.2c0-6.1-1.8-8.8-6.4-8.8s-6.4,2.7-6.4,8.8s1.8,8.8,6.4,8.8S345,164.2,345,158.2z"/>
	<path class="st0" d="M349.3,169.6l8.9-22.9h2.8l-8.8,22.9H349.3z"/>
	<path class="st0" d="M363,169.6v-22.9h3.4v22.9H363z"/>
	<path class="st0" d="M370.3,169.6v-22.9H384v3.1h-10.2v6.6h8.4v3h-8.4v7.2H384v3.1L370.3,169.6L370.3,169.6z"/>
	<path class="st0" d="M402.1,168.3c-2.3,1.1-4.8,1.7-7.3,1.7c-2.9,0.2-5.6-1-7.4-3.3c-1.6-2.6-2.3-5.5-2.1-8.5
		c-0.2-3.2,0.7-6.3,2.5-8.9c2-2.1,4.8-3.2,7.7-2.9c2,0,4,0.2,5.9,0.7l-0.3,2.9c-1.8-0.3-3.6-0.5-5.4-0.5c-2-0.2-4,0.6-5.4,2.1
		c-1.2,2-1.7,4.4-1.5,6.7c-0.2,2.2,0.3,4.4,1.3,6.4c1.1,1.6,3,2.5,5,2.4c2.1-0.1,4.2-0.5,6.2-1.4L402.1,168.3z"/>
	<path class="st0" d="M304.9,206.8v-2.7c6.3-5.5,10.8-9.8,10.8-13.6c0-2.8-2.1-3.9-4.5-3.9c-2,0.1-4,0.5-5.8,1.2l-1-2.7
		c2.2-1,4.6-1.5,7-1.5c4.6,0,7.7,2.3,7.7,6.8c0,5-5,9.3-9.9,13.4h10.2v3.1h-14.7L304.9,206.8z"/>
	<path class="st0" d="M324.7,206.8c1.8-7,4.5-13.7,8.1-19.9h-11.5v-3h15v2.8c-3.6,6.3-6.3,13.1-7.9,20.1L324.7,206.8z"/>
	<path class="st0" d="M338.1,195.3c0-7.7,1.5-11.8,8.3-11.8s8.2,4.1,8.2,11.8s-1.5,11.8-8.2,11.8S338.1,203,338.1,195.3z
		 M351.3,195.3c0-5.4-0.3-8.8-4.8-8.8s-4.9,3.4-4.9,8.8s0.3,8.9,4.9,8.9S351.3,200.8,351.3,195.3L351.3,195.3z"/>
	<path class="st0" d="M357.1,195.3c0-7.7,1.5-11.8,8.3-11.8s8.2,4.1,8.2,11.8s-1.5,11.8-8.2,11.8C358.7,207.1,357.1,203,357.1,195.3
		z M370.3,195.3c0-5.4-0.3-8.8-4.8-8.8s-4.9,3.4-4.9,8.8s0.3,8.9,4.9,8.9S370.3,200.8,370.3,195.3L370.3,195.3z"/>
	<path class="st0" d="M379.6,206.8v-19.5l-4.6,1.8l-1-2.3l6.2-3h3.1v22.9L379.6,206.8L379.6,206.8z"/>
	<path class="st0" d="M304.7,236.2v-18h2.7v18L304.7,236.2z"/>
	<path class="st0" d="M318,236.2v-8.5c0-1.6-0.8-2.4-2.2-2.4c-1.1,0-2.1,0.3-3.1,0.8v10.1h-2.6v-12.9h1.9l0.2,1.2
		c1.1-0.9,2.5-1.4,3.9-1.5c2.2-0.2,4.2,1.4,4.4,3.6c0,0.3,0,0.6,0,0.9v8.7L318,236.2L318,236.2z"/>
	<path class="st0" d="M323.6,236.2v-10.8h-1.9v-1.8l1.9-0.1V222c-0.1-1.1,0.3-2.2,1-3.1c0.9-0.7,2.1-1.1,3.3-1c0.6,0,1.3,0,1.9,0.1
		l-0.1,2.1c-0.7,0-1.2,0-1.7,0s-1.1,0-1.4,0.4c-0.3,0.5-0.5,1.1-0.4,1.7v1.1h2.8v2h-2.8v10.8L323.6,236.2z"/>
	<path class="st0" d="M335.2,236.5c-1.5,0.1-3-0.4-4.1-1.4c-2.3-3.2-2.3-7.4,0-10.6c1.1-1,2.6-1.5,4.1-1.4c1.5-0.1,3,0.4,4.1,1.4
		c2.3,3.2,2.3,7.4,0,10.6C338.2,236,336.7,236.6,335.2,236.5z M338.4,229.7c0.1-1.3-0.2-2.5-0.9-3.6c-1.3-1.2-3.3-1.2-4.6,0
		c-0.7,1.1-1,2.3-0.9,3.6c-0.1,1.3,0.2,2.5,0.9,3.6c0.6,0.6,1.4,1,2.3,0.9c0.9,0,1.7-0.3,2.3-0.9C338.2,232.3,338.5,231,338.4,229.7
		L338.4,229.7z"/>
	<path class="st0" d="M342.7,236.2v-12.9h1.9l0.3,1.5h0.1c0.8-1.3,2.3-2,3.8-1.8c0.4,0,0.7,0,1.1,0l-0.2,2.3c-0.5-0.1-1-0.1-1.5-0.1
		c-1.1-0.1-2.2,0.3-3.1,1v9.9L342.7,236.2z"/>
	<path class="st0" d="M366.1,236.2v-8.5c0-1.5-0.8-2.3-2.2-2.3c-1.1,0-2.1,0.3-3,0.9c0.1,0.5,0.1,1,0.1,1.5v8.4h-2.5v-8.5
		c0-1.5-0.8-2.3-2.2-2.3c-1,0-2,0.3-2.9,0.8v10.1h-2.5v-12.9h1.9l0.2,1.2c1.1-0.9,2.5-1.4,3.9-1.5c1.3-0.1,2.6,0.5,3.3,1.6
		c1.1-1,2.5-1.6,3.9-1.6c2.9,0,4.4,1.5,4.4,4.7v8.4L366.1,236.2L366.1,236.2z"/>
	<path class="st0" d="M378.5,236.2l-0.3-1.1c-1,0.9-2.4,1.4-3.8,1.4c-2.2,0.2-4.1-1.5-4.2-3.6c0-0.1,0-0.3,0-0.4
		c0-1.2,0.5-2.3,1.4-3c1-0.7,2.2-1,3.5-1c0.9,0,1.9,0,2.8,0.1v-1.1c0-0.6-0.2-1.1-0.5-1.5c-0.7-0.5-1.5-0.7-2.3-0.6
		c-1.2,0-2.4,0.2-3.6,0.4l-0.4-2.1c1.4-0.4,2.8-0.6,4.2-0.6c1.4-0.1,2.7,0.2,3.9,1c0.9,0.8,1.4,2.1,1.3,3.3v8.9L378.5,236.2
		L378.5,236.2z M377.8,230.4c-0.6,0-1.5-0.1-2.3-0.1c-1.9,0-2.8,0.7-2.8,2.1c0,1.1,0.8,2,1.9,2c0.1,0,0.2,0,0.4,0c1,0,2-0.3,2.8-0.9
		L377.8,230.4z"/>
	<path class="st0" d="M389.5,235.6c-1,0.5-2,0.8-3.1,0.8c-2.1,0-3.3-1.2-3.3-3.5v-7.5h-2v-1.9l2-0.1l0.2-3.8h2.3v3.7h3.6v2.1h-3.6
		v7.1c0,0.9,0.2,1.5,1.1,1.5c0.7,0,1.3-0.2,1.9-0.5L389.5,235.6z"/>
	<path class="st0" d="M392.1,218.1c0.8,0,1.4,0.6,1.4,1.4c0,0.8-0.6,1.4-1.4,1.4c0,0,0,0,0,0c-0.8,0-1.4-0.6-1.4-1.4c0,0,0,0,0,0
		C390.7,218.8,391.3,218.2,392.1,218.1C392.1,218.1,392.1,218.1,392.1,218.1z M390.8,236.2v-12.9h2.5v12.9H390.8z"/>
	<path class="st0" d="M400.8,236.5c-1.5,0.1-3-0.4-4.1-1.4c-2.3-3.2-2.3-7.4,0-10.6c1.1-1,2.6-1.5,4.1-1.4c1.5-0.1,3,0.4,4.1,1.4
		c2.3,3.2,2.3,7.4,0,10.6C403.8,236,402.3,236.6,400.8,236.5z M404.1,229.7c0.1-1.3-0.2-2.5-0.9-3.6c-1.3-1.2-3.3-1.2-4.6,0
		c-0.7,1.1-1,2.3-0.9,3.6c-0.1,1.3,0.2,2.5,0.9,3.6c0.6,0.6,1.4,1,2.3,0.9c0.9,0,1.7-0.3,2.3-0.9C403.8,232.3,404.2,231,404.1,229.7
		L404.1,229.7z"/>
	<path class="st0" d="M416.1,236.2v-8.5c0-1.6-0.8-2.4-2.2-2.4c-1.1,0-2.1,0.3-3.1,0.8v10.1h-2.5v-12.9h1.9l0.2,1.2
		c1.1-0.9,2.5-1.4,3.9-1.5c2.2-0.2,4.2,1.4,4.4,3.6c0,0.3,0,0.6,0,0.9v8.7L416.1,236.2L416.1,236.2z"/>
	<path class="st0" d="M426.4,233.7c1.4,0.2,2.8,0.4,4.2,0.4c1.4,0.1,2.7-0.2,3.8-1c0.5-0.5,0.8-1.1,0.8-1.8c0-1.7-1.1-2.3-4.2-3.3
		c-3.1-0.9-5.1-2.2-5.1-5.2c0-1.4,0.6-2.7,1.7-3.6c1.3-0.9,2.9-1.3,4.4-1.2c1.7,0,3.3,0.2,5,0.6l-0.3,2.2c-1.4-0.2-2.8-0.4-4.1-0.4
		c-1.1-0.1-2.1,0.1-3.1,0.6c-0.5,0.4-0.9,1-0.8,1.7c0,1.8,1.4,2.4,4.4,3.3c3,0.9,4.9,2.1,4.9,5.3c0.1,1.5-0.6,3-1.8,4
		c-1.5,1-3.2,1.4-4.9,1.3c-1.7,0-3.4-0.2-5.1-0.5L426.4,233.7z"/>
	<path class="st0" d="M449.2,235.4c-1.4,0.7-2.9,1-4.5,1c-3.8,0-5.8-2.4-5.8-6.6c0-3.5,1.5-6.8,5.5-6.8c3.1,0,4.9,2.2,4.9,5.7
		c0,0.7-0.1,1.3-0.2,2h-7.7c0,1,0.3,1.9,0.9,2.6c0.7,0.6,1.6,1,2.6,0.9c1.3,0,2.5-0.3,3.7-0.8L449.2,235.4z M447,228.6
		c0-1.9-0.6-3.5-2.6-3.5s-2.8,1.7-2.8,3.5H447z"/>
	<path class="st0" d="M460.2,235.4c-1.4,0.7-2.9,1-4.4,1c-3.4,0-5.5-1.9-5.5-6.7c0-5.5,2.8-6.8,5.9-6.8c1.2,0,2.4,0.1,3.6,0.4
		l-0.2,2.1c-1-0.2-1.9-0.2-2.9-0.2c-2.5,0-3.8,1-3.8,4.5c0,3.1,1.1,4.5,3.2,4.5c1.2,0,2.4-0.3,3.5-0.8L460.2,235.4z"/>
	<path class="st0" d="M469.9,236.2l-0.2-1.1c-1.1,0.9-2.5,1.4-3.9,1.4c-2.2,0.2-4.2-1.4-4.4-3.6c0-0.3,0-0.6,0-0.9v-8.7h2.5v8.4
		c0,1.7,0.8,2.4,2.3,2.4c1,0,2.1-0.3,3-0.7v-10.1h2.5v12.9L469.9,236.2L469.9,236.2z"/>
	<path class="st0" d="M474.3,236.2v-12.9h1.9l0.3,1.5h0.1c0.8-1.3,2.3-2,3.8-1.8c0.4,0,0.7,0,1.1,0l-0.2,2.3c-0.5-0.1-1-0.1-1.5-0.1
		c-1.1-0.1-2.2,0.3-3.1,1v9.9L474.3,236.2z"/>
	<path class="st0" d="M483.8,218.1c0.8,0,1.4,0.6,1.4,1.4c0,0,0,0,0,0c0,0.8-0.6,1.4-1.4,1.4c0,0,0,0,0,0c-0.8,0-1.4-0.6-1.4-1.4
		c0,0,0,0,0,0C482.4,218.8,483,218.2,483.8,218.1C483.8,218.1,483.8,218.1,483.8,218.1z M482.6,236.2v-12.9h2.5v12.9H482.6z"/>
	<path class="st0" d="M494.4,235.6c-1,0.5-2,0.8-3.1,0.8c-2.1,0-3.3-1.2-3.3-3.5v-7.5h-1.9v-1.9l2-0.1l0.2-3.8h2.3v3.7h3.6v2.1h-3.6
		v7.1c0,0.9,0.2,1.5,1.1,1.5c0.7,0,1.3-0.2,1.9-0.5L494.4,235.6z"/>
	<path class="st0" d="M497.9,241.3c0.8-2,1.4-3.7,1.8-5.1h-1.4c-1.3-3.6-2.6-8.2-3.8-12.9h2.7c0.9,3.8,1.8,7.4,2.9,10.8h0.2
		c1-3.1,2.1-7.2,3-10.8h2.6c-1.5,6.1-3.3,12.1-5.5,18H497.9z"/>
	<path class="st0" d="M319.5,265.6c-0.1-4.8-0.4-9.7-0.6-14.5h-0.1l-4.1,11.4h-2.9l-4.1-11.4h-0.1c-0.2,4.7-0.4,9.7-0.6,14.5h-2.7
		c0.2-6,0.5-11.9,0.8-18h3.9l4.1,11.9h0.1l4.1-11.9h3.9c0.3,6,0.6,12,0.8,18H319.5z"/>
	<path class="st0" d="M332.1,265.6l-0.3-1.1c-1,0.9-2.4,1.4-3.8,1.4c-2.2,0.2-4.1-1.5-4.2-3.6c0-0.1,0-0.3,0-0.4
		c0-1.2,0.5-2.3,1.4-3c1-0.7,2.2-1,3.5-1c0.9,0,1.9,0,2.8,0.1v-1.1c0-0.6-0.2-1.1-0.5-1.5c-0.7-0.5-1.5-0.7-2.3-0.6
		c-1.2,0-2.4,0.2-3.6,0.4l-0.4-2.1c1.4-0.4,2.8-0.6,4.2-0.6c1.4-0.1,2.7,0.2,3.9,1c0.9,0.8,1.4,2.1,1.3,3.3v8.9L332.1,265.6
		L332.1,265.6z M331.5,259.8c-0.6,0-1.5,0-2.3,0c-1.9,0-2.8,0.7-2.8,2.1c0,1.1,0.8,2,1.9,2c0.1,0,0.2,0,0.3,0c1,0,2-0.3,2.8-0.9
		V259.8z"/>
	<path class="st0" d="M344.3,265.6v-8.5c0-1.6-0.8-2.4-2.2-2.4c-1.1,0-2.1,0.3-3.1,0.8v10.1h-2.5v-12.9h1.9l0.2,1.2
		c1.1-0.9,2.5-1.4,3.9-1.5c2.2-0.2,4.2,1.4,4.4,3.6c0,0.3,0,0.6,0,0.9v8.7L344.3,265.6L344.3,265.6z"/>
	<path class="st0" d="M356.7,265.6l-0.3-1.1c-1,0.9-2.4,1.4-3.8,1.4c-2.2,0.2-4.1-1.5-4.2-3.6c0-0.1,0-0.3,0-0.4
		c0-1.2,0.5-2.3,1.4-3c1-0.7,2.2-1,3.5-1c0.9,0,1.9,0,2.8,0.1v-1.1c0-0.6-0.2-1.1-0.5-1.5c-0.7-0.5-1.5-0.7-2.3-0.6
		c-1.2,0-2.4,0.2-3.6,0.4l-0.4-2.1c1.4-0.4,2.8-0.6,4.2-0.6c1.4-0.1,2.7,0.2,3.9,1c0.9,0.8,1.4,2.1,1.3,3.3v8.9L356.7,265.6
		L356.7,265.6z M356,259.8c-0.6,0-1.5,0-2.3,0c-1.9,0-2.8,0.7-2.8,2.1c0,1.1,0.8,2,1.9,2c0.1,0,0.2,0,0.3,0c1,0,2-0.3,2.8-0.9V259.8
		z"/>
	<path class="st0" d="M368.4,264.9c-0.9,0.6-2,1-3.1,1c-3.7,0-5-2.4-5-6.6c0-4.8,1.5-6.8,5.1-6.8c1.9,0,3.7,0.3,5.5,0.9v13.4
		c0.1,1.2-0.4,2.3-1.2,3.1c-1.1,0.8-2.6,1.2-4,1.1c-1.4,0-2.8-0.2-4.1-0.4l0.3-2.2c1.1,0.2,2.3,0.3,3.5,0.3c0.9,0.1,1.7-0.1,2.4-0.6
		c0.4-0.4,0.5-1,0.5-1.5V265L368.4,264.9z M368.4,254.9c-0.9-0.2-1.8-0.2-2.7-0.2c-2.2,0-2.8,1.5-2.8,4.6s0.6,4.5,2.7,4.5
		c1,0,1.9-0.2,2.8-0.6V254.9z"/>
	<path class="st0" d="M382.7,264.8c-1.4,0.7-2.9,1-4.5,1c-3.8,0-5.8-2.4-5.8-6.6c0-3.5,1.5-6.8,5.5-6.8c3.1,0,4.9,2.2,4.9,5.7
		c0,0.7-0.1,1.3-0.2,2H375c0,1,0.3,1.9,0.9,2.6c0.7,0.6,1.6,1,2.6,0.9c1.3,0,2.5-0.3,3.7-0.8L382.7,264.8z M380.4,258.1
		c0-1.9-0.6-3.5-2.6-3.5s-2.8,1.7-2.8,3.5H380.4z"/>
	<path class="st0" d="M399.7,265.6v-8.5c0-1.5-0.8-2.3-2.2-2.3c-1.1,0-2.1,0.3-3,0.9c0.1,0.5,0.1,1,0.1,1.5v8.4h-2.5V257
		c0-1.5-0.8-2.3-2.2-2.3c-1,0-2,0.3-2.9,0.8v10.1h-2.5v-12.8h1.9l0.2,1.2c1.1-0.9,2.5-1.4,3.9-1.5c1.3-0.1,2.6,0.5,3.3,1.6
		c1.1-1,2.5-1.6,4-1.6c2.9,0,4.4,1.5,4.4,4.7v8.4L399.7,265.6L399.7,265.6z"/>
	<path class="st0" d="M413.9,264.8c-1.4,0.7-2.9,1-4.5,1c-3.8,0-5.8-2.4-5.8-6.6c0-3.5,1.5-6.8,5.5-6.8c3.1,0,4.9,2.2,4.9,5.7
		c0,0.7-0.1,1.3-0.2,2h-7.7c0,1,0.3,1.9,0.9,2.6c0.7,0.6,1.6,1,2.6,0.9c1.3,0,2.5-0.3,3.7-0.8L413.9,264.8z M411.7,258.1
		c0-1.9-0.6-3.5-2.6-3.5s-2.8,1.7-2.9,3.5H411.7z"/>
	<path class="st0" d="M423.6,265.6v-8.5c0-1.6-0.8-2.4-2.2-2.4c-1.1,0-2.1,0.3-3.1,0.8v10.1h-2.5v-12.9h1.9l0.2,1.2
		c1.1-0.9,2.5-1.4,3.9-1.5c2.2-0.2,4.2,1.4,4.4,3.6c0,0.3,0,0.6,0,0.9v8.7L423.6,265.6L423.6,265.6z"/>
	<path class="st0" d="M435.2,265c-1,0.5-2,0.8-3.1,0.8c-2.1,0-3.3-1.2-3.3-3.5v-7.5h-1.9v-1.9l2-0.1l0.2-3.8h2.3v3.7h3.6v2.1h-3.6
		v7.1c0,0.9,0.2,1.5,1.1,1.5c0.7,0,1.3-0.2,1.9-0.5L435.2,265z"/>
	<path class="st0" d="M431.2,343H175.1c-1.5,0-2.7-1.2-2.7-2.7c0-1.5,1.2-2.7,2.7-2.7c0,0,0,0,0,0h256.1
		c57.5,0,104.2-46.7,104.2-104.2c0-57.5-46.6-104.2-104.2-104.2H230c-1.5,0-2.7-1.2-2.7-2.7c0-1.5,1.2-2.7,2.7-2.7c0,0,0,0,0,0
		h201.2c60.6,0,109.7,49.1,109.7,109.7S491.7,343,431.2,343L431.2,343z"/>
	<path class="st0" d="M181.5,207.3c0.7-12.9,11.6-22.7,24.5-22.1c11.9,0.6,21.5,10.1,22.1,22.1H181.5z M201.1,262.6
		c-3.3-9.7-11.1-14.8-17.7-19.1c-7.3-4.8-10.4-7.2-10.5-11.8c0-6.2,4.9-11.3,11.2-11.4h40.6L201.1,262.6z M169.7,299.4
		c1.8,0.3,3.6,0.5,5.5,0.5c1.8,0,3.7-0.2,5.5-0.5l-5.5,9.8L169.7,299.4z M163,220.2c-1.8,3.4-2.8,7.2-2.8,11.1l0,0
		c0,0.1,0,0.3,0,0.4l0,0c0.2,12.1,9.2,18,16.4,22.7c8.6,5.6,13.5,9.3,13.5,18.4s-7.2,14.3-16,14.3c-5.7,0-12.8-3.1-15.7-8.1
		l-2.5-4.4l-30.5-54.5L163,220.2L163,220.2z M146,185.1c12.4,0.1,22.5,9.8,23.2,22.2h-46.4C123.5,195,133.6,185.3,146,185.1
		 M204.8,172.7c-11.9,0-23,6-29.4,16.1c-6.4-10-17.5-16.1-29.4-16.1c-19.9,0.1-36,16.2-35.9,36.1v3.7c-0.1,4,1,8,3.1,11.3
		l61.9,106.8c0,0,58.8-101.5,61.7-106.8c2.9-5.3,3.4-7.7,3.4-11.3v-3.7C240.3,189.2,224.4,173,204.8,172.7"/>
	<path class="st0" d="M152.8,120.9c-3.7,0-7.4,1.1-10.5,3.1v-22.3h-8.8v60.5h5.2l1.4-3.3c3.6,2.8,8.1,4.3,12.7,4.2
		c11.5,0,15.7-7.9,15.7-21.1C168.6,128.8,164.3,120.9,152.8,120.9 M150.8,128.7c7.7,0,8.9,6,8.9,13.5c0,7.4-1.2,13.5-8.9,13.5
		c-3,0-5.9-0.8-8.5-2.4v-22.3C144.9,129.4,147.8,128.6,150.8,128.7 M179.7,133.5c0-3.6,2.9-5,7.6-5c4.1,0,8.2,0.7,12,2.3v-7.8
		c-3.9-1.5-8-2.2-12.2-2c-11.5,0-15.9,5.9-15.9,12.8c0,6.9,2.9,10.7,14.8,11.8c5.3,0.5,6.5,2,6.5,5c0,3.5-3.1,5-9.3,5
		c-4-0.1-8-0.8-11.7-2.3v7.7c4.2,1.5,8.6,2.2,13,2.2c12.6,0,16.7-6,16.7-13c0-7.5-3.1-11.1-14.8-12.2
		C181.1,137.5,179.7,136.3,179.7,133.5 M215,162.8c0.6,0,1.2-0.1,1.7-0.2v-7.3c-2.5,0-3.3-0.8-3.3-3.1v-30.3h-8.8v30.4
		C204.6,159.2,207.9,162.8,215,162.8 M203.3,109.9c-0.2,3.2,2.3,5.9,5.4,6c3.2,0.2,5.9-2.3,6-5.4c0-0.2,0-0.4,0-0.6
		c0.2-3.2-2.3-5.9-5.4-6c-3.2-0.2-5.9,2.3-6,5.4C203.3,109.5,203.3,109.7,203.3,109.9"/>
	<path class="st0" d="M175.1,343c-60.6,0-109.7-49.1-109.7-109.7c0-38.6,20.3-74.4,53.4-94.2c1.2-0.9,2.9-0.8,3.9,0.4
		c0.9,1.2,0.8,2.9-0.4,3.9c-0.2,0.2-0.4,0.3-0.6,0.4c-49.4,29.5-65.6,93.5-36.1,142.9s93.5,65.6,142.9,36.1
		c31.5-18.8,50.8-52.8,50.8-89.4c0.2-36.7-19.2-70.8-50.8-89.5c-1.4-0.6-2-2.2-1.4-3.6c0.6-1.4,2.2-2,3.6-1.4
		c0.2,0.1,0.4,0.2,0.6,0.4c52,31.1,68.9,98.5,37.7,150.5C249.3,322.8,213.6,343,175.1,343z"/>
</g>
</svg>
