<?xml version="1.0" encoding="UTF-8"?>
<!-- Do not edit this file with editors other than draw.io -->
<!DOCTYPE svg PUBLIC "-//W3C//DTD SVG 1.1//EN" "http://www.w3.org/Graphics/SVG/1.1/DTD/svg11.dtd">
<svg xmlns="http://www.w3.org/2000/svg" style="background: transparent; background-color: transparent; color-scheme: light dark;" xmlns:xlink="http://www.w3.org/1999/xlink" version="1.1" width="401px" height="171px" viewBox="-0.5 -0.5 401 171" content="&lt;mxfile host=&quot;app.diagrams.net&quot; agent=&quot;Mozilla/5.0 (X11; Linux x86_64; rv:139.0) Gecko/20100101 Firefox/139.0&quot; version=&quot;27.1.4&quot;&gt;&#xA;  &lt;diagram name=&quot;Page-1&quot; id=&quot;jCsI6A5sVEaJApT1T96v&quot;&gt;&#xA;    &lt;mxGraphModel dx=&quot;761&quot; dy=&quot;679&quot; grid=&quot;1&quot; gridSize=&quot;10&quot; guides=&quot;1&quot; tooltips=&quot;1&quot; connect=&quot;1&quot; arrows=&quot;1&quot; fold=&quot;1&quot; page=&quot;1&quot; pageScale=&quot;1&quot; pageWidth=&quot;827&quot; pageHeight=&quot;1169&quot; math=&quot;0&quot; shadow=&quot;0&quot;&gt;&#xA;      &lt;root&gt;&#xA;        &lt;mxCell id=&quot;0&quot; /&gt;&#xA;        &lt;mxCell id=&quot;1&quot; parent=&quot;0&quot; /&gt;&#xA;        &lt;mxCell id=&quot;HpU3hQ6QYVwBgwJFLfaI-1&quot; value=&quot;&quot; style=&quot;shape=mxgraph.networks2.icon;aspect=fixed;fillColor=#EDEDED;strokeColor=#000000;gradientColor=#5B6163;network2IconShadow=1;network2bgFillColor=none;network2Icon=mxgraph.networks2.terminal;network2IconW=0.8554;network2IconH=1;&quot; vertex=&quot;1&quot; parent=&quot;1&quot;&gt;&#xA;          &lt;mxGeometry x=&quot;120&quot; y=&quot;200&quot; width=&quot;119.76&quot; height=&quot;140&quot; as=&quot;geometry&quot; /&gt;&#xA;        &lt;/mxCell&gt;&#xA;        &lt;mxCell id=&quot;HpU3hQ6QYVwBgwJFLfaI-2&quot; value=&quot;&quot; style=&quot;shape=mxgraph.networks2.icon;aspect=fixed;fillColor=#EDEDED;strokeColor=#000000;gradientColor=#5B6163;network2IconShadow=1;network2bgFillColor=none;network2Icon=mxgraph.networks2.terminal;network2IconW=0.8554;network2IconH=1;&quot; vertex=&quot;1&quot; parent=&quot;1&quot;&gt;&#xA;          &lt;mxGeometry x=&quot;400&quot; y=&quot;200&quot; width=&quot;119.76&quot; height=&quot;140&quot; as=&quot;geometry&quot; /&gt;&#xA;        &lt;/mxCell&gt;&#xA;        &lt;mxCell id=&quot;HpU3hQ6QYVwBgwJFLfaI-4&quot; value=&quot;&quot; style=&quot;endArrow=none;html=1;rounded=0;exitX=0.989;exitY=0.854;exitDx=0;exitDy=0;exitPerimeter=0;entryX=0.008;entryY=0.861;entryDx=0;entryDy=0;entryPerimeter=0;strokeWidth=5;&quot; edge=&quot;1&quot; parent=&quot;1&quot; source=&quot;HpU3hQ6QYVwBgwJFLfaI-1&quot; target=&quot;HpU3hQ6QYVwBgwJFLfaI-2&quot;&gt;&#xA;          &lt;mxGeometry width=&quot;50&quot; height=&quot;50&quot; relative=&quot;1&quot; as=&quot;geometry&quot;&gt;&#xA;            &lt;mxPoint x=&quot;370&quot; y=&quot;380&quot; as=&quot;sourcePoint&quot; /&gt;&#xA;            &lt;mxPoint x=&quot;430&quot; y=&quot;320&quot; as=&quot;targetPoint&quot; /&gt;&#xA;          &lt;/mxGeometry&gt;&#xA;        &lt;/mxCell&gt;&#xA;        &lt;mxCell id=&quot;HpU3hQ6QYVwBgwJFLfaI-5&quot; value=&quot;&quot; style=&quot;shape=mxgraph.mockup.markup.redX;fillColor=#ff0000;html=1;shadow=0;whiteSpace=wrap;strokeColor=none;&quot; vertex=&quot;1&quot; parent=&quot;1&quot;&gt;&#xA;          &lt;mxGeometry x=&quot;270&quot; y=&quot;270&quot; width=&quot;100&quot; height=&quot;100&quot; as=&quot;geometry&quot; /&gt;&#xA;        &lt;/mxCell&gt;&#xA;      &lt;/root&gt;&#xA;    &lt;/mxGraphModel&gt;&#xA;  &lt;/diagram&gt;&#xA;&lt;/mxfile&gt;&#xA;"><defs/><g><g data-cell-id="0"><g data-cell-id="1"><g data-cell-id="HpU3hQ6QYVwBgwJFLfaI-1"><g><path d="M 116.93 70.24 L 2.8 70.24 C 2.03 70.24 1.4 69.61 1.4 68.84 L 1.4 2.8 C 1.4 2.03 2.03 1.4 2.8 1.4 L 116.93 1.4 C 117.7 1.4 118.33 2.03 118.33 2.8 L 118.33 68.84 C 118.33 69.61 117.7 70.24 116.93 70.24 Z M 118.36 135.1 L 118.36 106.69 C 118.36 104.76 116.79 103.19 114.86 103.19 L 5 103.19 C 3.07 103.19 1.5 104.76 1.5 106.69 L 1.5 135.1 C 1.5 137.03 3.07 138.6 5 138.6 L 114.86 138.6 C 116.79 138.6 118.36 137.03 118.36 135.1 Z" fill="#ededed" style="fill: light-dark(rgb(237, 237, 237), rgb(33, 33, 33));" stroke="none" pointer-events="all"/><path d="M 82.32 110.32 L 10.08 110.32 C 9.31 110.32 8.68 110.95 8.68 111.72 C 8.68 112.49 9.31 113.12 10.08 113.12 L 82.32 113.12 C 83.09 113.12 83.72 112.49 83.72 111.72 C 83.72 110.95 83.09 110.32 82.32 110.32 Z M 80.66 117.89 L 12.18 117.89 C 10.25 117.89 8.68 119.46 8.68 121.39 L 8.68 129.01 C 8.68 130.94 10.25 132.51 12.18 132.51 L 80.66 132.51 C 82.59 132.51 84.16 130.94 84.16 129.01 L 84.16 121.39 C 84.16 119.46 82.59 117.89 80.66 117.89 Z M 107.68 109.82 L 95.96 109.82 C 94.03 109.82 92.46 111.38 92.46 113.32 L 92.46 129.02 C 92.46 130.96 94.03 132.52 95.96 132.52 L 107.68 132.52 C 108.77 132.52 109.75 132.02 110.39 131.24 C 110.88 130.63 111.18 129.86 111.18 129.02 L 111.18 113.32 C 111.18 111.38 109.61 109.82 107.68 109.82 Z M 107.68 109.82 L 95.96 109.82 C 94.03 109.82 92.46 111.38 92.46 113.32 L 92.46 129.02 C 92.46 130.96 94.03 132.52 95.96 132.52 L 107.68 132.52 C 108.77 132.52 109.75 132.02 110.39 131.24 C 110.88 130.63 111.18 129.86 111.18 129.02 L 111.18 113.32 C 111.18 111.38 109.61 109.82 107.68 109.82 Z M 80.66 117.89 L 12.18 117.89 C 10.25 117.89 8.68 119.46 8.68 121.39 L 8.68 129.01 C 8.68 130.94 10.25 132.51 12.18 132.51 L 80.66 132.51 C 82.59 132.51 84.16 130.94 84.16 129.01 L 84.16 121.39 C 84.16 119.46 82.59 117.89 80.66 117.89 Z M 82.32 110.32 L 10.08 110.32 C 9.31 110.32 8.68 110.95 8.68 111.72 C 8.68 112.49 9.31 113.12 10.08 113.12 L 82.32 113.12 C 83.09 113.12 83.72 112.49 83.72 111.72 C 83.72 110.95 83.09 110.32 82.32 110.32 Z M 82.32 110.32 L 10.08 110.32 C 9.31 110.32 8.68 110.95 8.68 111.72 C 8.68 112.49 9.31 113.12 10.08 113.12 L 82.32 113.12 C 83.09 113.12 83.72 112.49 83.72 111.72 C 83.72 110.95 83.09 110.32 82.32 110.32 Z M 80.66 117.89 L 12.18 117.89 C 10.25 117.89 8.68 119.46 8.68 121.39 L 8.68 129.01 C 8.68 130.94 10.25 132.51 12.18 132.51 L 80.66 132.51 C 82.59 132.51 84.16 130.94 84.16 129.01 L 84.16 121.39 C 84.16 119.46 82.59 117.89 80.66 117.89 Z M 107.68 109.82 L 95.96 109.82 C 94.03 109.82 92.46 111.38 92.46 113.32 L 92.46 129.02 C 92.46 130.96 94.03 132.52 95.96 132.52 L 107.68 132.52 C 108.77 132.52 109.75 132.02 110.39 131.24 C 110.88 130.63 111.18 129.86 111.18 129.02 L 111.18 113.32 C 111.18 111.38 109.61 109.82 107.68 109.82 Z M 107.68 109.82 L 95.96 109.82 C 94.03 109.82 92.46 111.38 92.46 113.32 L 92.46 129.02 C 92.46 130.96 94.03 132.52 95.96 132.52 L 107.68 132.52 C 108.77 132.52 109.75 132.02 110.39 131.24 C 110.88 130.63 111.18 129.86 111.18 129.02 L 111.18 113.32 C 111.18 111.38 109.61 109.82 107.68 109.82 Z M 80.66 117.89 L 12.18 117.89 C 10.25 117.89 8.68 119.46 8.68 121.39 L 8.68 129.01 C 8.68 130.94 10.25 132.51 12.18 132.51 L 80.66 132.51 C 82.59 132.51 84.16 130.94 84.16 129.01 L 84.16 121.39 C 84.16 119.46 82.59 117.89 80.66 117.89 Z M 10.08 113.12 L 82.32 113.12 C 83.09 113.12 83.72 112.49 83.72 111.72 C 83.72 110.95 83.09 110.32 82.32 110.32 L 10.08 110.32 C 9.31 110.32 8.68 110.95 8.68 111.72 C 8.68 112.49 9.31 113.12 10.08 113.12 Z M 114.86 101.79 L 5 101.79 C 2.3 101.79 0.1 103.99 0.1 106.69 L 0.1 135.1 C 0.1 136.4 0.62 137.59 1.46 138.47 L 1.62 138.64 C 2.51 139.48 3.7 140 5 140 L 114.86 140 C 116.06 140 117.16 139.57 118.01 138.85 C 119.07 137.96 119.76 136.61 119.76 135.1 L 119.76 106.69 C 119.76 103.99 117.56 101.79 114.86 101.79 Z M 114.86 137.2 L 5 137.2 C 3.84 137.2 2.9 136.26 2.9 135.1 L 2.9 106.69 C 2.9 105.53 3.84 104.59 5 104.59 L 114.86 104.59 C 116.02 104.59 116.96 105.53 116.96 106.69 L 116.96 135.1 C 116.96 135.83 116.58 136.47 116.01 136.85 C 115.67 137.07 115.28 137.2 114.86 137.2 Z M 107.68 109.82 L 95.96 109.82 C 94.03 109.82 92.46 111.38 92.46 113.32 L 92.46 129.02 C 92.46 130.96 94.03 132.52 95.96 132.52 L 107.68 132.52 C 108.77 132.52 109.75 132.02 110.39 131.24 C 110.88 130.63 111.18 129.86 111.18 129.02 L 111.18 113.32 C 111.18 111.38 109.61 109.82 107.68 109.82 Z M 80.66 117.89 L 12.18 117.89 C 10.25 117.89 8.68 119.46 8.68 121.39 L 8.68 129.01 C 8.68 130.94 10.25 132.51 12.18 132.51 L 80.66 132.51 C 82.59 132.51 84.16 130.94 84.16 129.01 L 84.16 121.39 C 84.16 119.46 82.59 117.89 80.66 117.89 Z M 10.08 113.12 L 82.32 113.12 C 83.09 113.12 83.72 112.49 83.72 111.72 C 83.72 110.95 83.09 110.32 82.32 110.32 L 10.08 110.32 C 9.31 110.32 8.68 110.95 8.68 111.72 C 8.68 112.49 9.31 113.12 10.08 113.12 Z M 82.32 110.32 L 10.08 110.32 C 9.31 110.32 8.68 110.95 8.68 111.72 C 8.68 112.49 9.31 113.12 10.08 113.12 L 82.32 113.12 C 83.09 113.12 83.72 112.49 83.72 111.72 C 83.72 110.95 83.09 110.32 82.32 110.32 Z M 80.66 117.89 L 12.18 117.89 C 10.25 117.89 8.68 119.46 8.68 121.39 L 8.68 129.01 C 8.68 130.94 10.25 132.51 12.18 132.51 L 80.66 132.51 C 82.59 132.51 84.16 130.94 84.16 129.01 L 84.16 121.39 C 84.16 119.46 82.59 117.89 80.66 117.89 Z M 107.68 109.82 L 95.96 109.82 C 94.03 109.82 92.46 111.38 92.46 113.32 L 92.46 129.02 C 92.46 130.96 94.03 132.52 95.96 132.52 L 107.68 132.52 C 108.77 132.52 109.75 132.02 110.39 131.24 C 110.88 130.63 111.18 129.86 111.18 129.02 L 111.18 113.32 C 111.18 111.38 109.61 109.82 107.68 109.82 Z M 107.68 109.82 L 95.96 109.82 C 94.03 109.82 92.46 111.38 92.46 113.32 L 92.46 129.02 C 92.46 130.96 94.03 132.52 95.96 132.52 L 107.68 132.52 C 108.77 132.52 109.75 132.02 110.39 131.24 C 110.88 130.63 111.18 129.86 111.18 129.02 L 111.18 113.32 C 111.18 111.38 109.61 109.82 107.68 109.82 Z M 80.66 117.89 L 12.18 117.89 C 10.25 117.89 8.68 119.46 8.68 121.39 L 8.68 129.01 C 8.68 130.94 10.25 132.51 12.18 132.51 L 80.66 132.51 C 82.59 132.51 84.16 130.94 84.16 129.01 L 84.16 121.39 C 84.16 119.46 82.59 117.89 80.66 117.89 Z M 82.32 110.32 L 10.08 110.32 C 9.31 110.32 8.68 110.95 8.68 111.72 C 8.68 112.49 9.31 113.12 10.08 113.12 L 82.32 113.12 C 83.09 113.12 83.72 112.49 83.72 111.72 C 83.72 110.95 83.09 110.32 82.32 110.32 Z M 82.32 110.32 L 10.08 110.32 C 9.31 110.32 8.68 110.95 8.68 111.72 C 8.68 112.49 9.31 113.12 10.08 113.12 L 82.32 113.12 C 83.09 113.12 83.72 112.49 83.72 111.72 C 83.72 110.95 83.09 110.32 82.32 110.32 Z M 80.66 117.89 L 12.18 117.89 C 10.25 117.89 8.68 119.46 8.68 121.39 L 8.68 129.01 C 8.68 130.94 10.25 132.51 12.18 132.51 L 80.66 132.51 C 82.59 132.51 84.16 130.94 84.16 129.01 L 84.16 121.39 C 84.16 119.46 82.59 117.89 80.66 117.89 Z M 107.68 109.82 L 95.96 109.82 C 94.03 109.82 92.46 111.38 92.46 113.32 L 92.46 129.02 C 92.46 130.96 94.03 132.52 95.96 132.52 L 107.68 132.52 C 108.77 132.52 109.75 132.02 110.39 131.24 C 110.88 130.63 111.18 129.86 111.18 129.02 L 111.18 113.32 C 111.18 111.38 109.61 109.82 107.68 109.82 Z M 118.92 0.83 L 118.91 0.8 C 118.39 0.31 117.69 0 116.93 0 L 2.8 0 C 1.26 0 0 1.26 0 2.8 L 0 68.84 C 0 69.61 0.31 70.31 0.83 70.81 C 1.33 71.32 2.03 71.64 2.8 71.64 L 48.54 71.64 L 48.54 84.39 L 33.56 84.39 C 32.79 84.39 32.16 85.02 32.16 85.79 L 32.16 87.5 C 32.16 88.27 32.79 88.9 33.56 88.9 L 86.59 88.9 C 87.36 88.9 87.99 88.27 87.99 87.5 L 87.99 85.79 C 87.99 85.02 87.36 84.39 86.59 84.39 L 71.5 84.39 L 71.5 71.64 L 116.93 71.64 C 118.47 71.64 119.73 70.38 119.73 68.84 L 119.73 2.8 C 119.73 2.03 119.41 1.33 118.92 0.83 Z M 116.93 68.84 L 2.8 68.84 L 2.8 2.8 L 116.93 2.8 L 116.93 68.84 C 116.93 68.84 116.93 68.84 116.93 68.84 Z M 82.32 110.32 L 10.08 110.32 C 9.31 110.32 8.68 110.95 8.68 111.72 C 8.68 112.49 9.31 113.12 10.08 113.12 L 82.32 113.12 C 83.09 113.12 83.72 112.49 83.72 111.72 C 83.72 110.95 83.09 110.32 82.32 110.32 Z M 80.66 117.89 L 12.18 117.89 C 10.25 117.89 8.68 119.46 8.68 121.39 L 8.68 129.01 C 8.68 130.94 10.25 132.51 12.18 132.51 L 80.66 132.51 C 82.59 132.51 84.16 130.94 84.16 129.01 L 84.16 121.39 C 84.16 119.46 82.59 117.89 80.66 117.89 Z M 107.68 109.82 L 95.96 109.82 C 94.03 109.82 92.46 111.38 92.46 113.32 L 92.46 129.02 C 92.46 130.96 94.03 132.52 95.96 132.52 L 107.68 132.52 C 108.77 132.52 109.75 132.02 110.39 131.24 C 110.88 130.63 111.18 129.86 111.18 129.02 L 111.18 113.32 C 111.18 111.38 109.61 109.82 107.68 109.82 Z" fill="#000000" style="fill: light-dark(rgb(0, 0, 0), rgb(237, 237, 237));" stroke="none" pointer-events="all"/></g></g><g data-cell-id="HpU3hQ6QYVwBgwJFLfaI-2"><g><path d="M 396.93 70.24 L 282.8 70.24 C 282.03 70.24 281.4 69.61 281.4 68.84 L 281.4 2.8 C 281.4 2.03 282.03 1.4 282.8 1.4 L 396.93 1.4 C 397.7 1.4 398.33 2.03 398.33 2.8 L 398.33 68.84 C 398.33 69.61 397.7 70.24 396.93 70.24 Z M 398.36 135.1 L 398.36 106.69 C 398.36 104.76 396.79 103.19 394.86 103.19 L 285 103.19 C 283.07 103.19 281.5 104.76 281.5 106.69 L 281.5 135.1 C 281.5 137.03 283.07 138.6 285 138.6 L 394.86 138.6 C 396.79 138.6 398.36 137.03 398.36 135.1 Z" fill="#ededed" style="fill: light-dark(rgb(237, 237, 237), rgb(33, 33, 33));" stroke="none" pointer-events="all"/><path d="M 362.32 110.32 L 290.08 110.32 C 289.31 110.32 288.68 110.95 288.68 111.72 C 288.68 112.49 289.31 113.12 290.08 113.12 L 362.32 113.12 C 363.09 113.12 363.72 112.49 363.72 111.72 C 363.72 110.95 363.09 110.32 362.32 110.32 Z M 360.66 117.89 L 292.18 117.89 C 290.25 117.89 288.68 119.46 288.68 121.39 L 288.68 129.01 C 288.68 130.94 290.25 132.51 292.18 132.51 L 360.66 132.51 C 362.59 132.51 364.16 130.94 364.16 129.01 L 364.16 121.39 C 364.16 119.46 362.59 117.89 360.66 117.89 Z M 387.68 109.82 L 375.96 109.82 C 374.03 109.82 372.46 111.38 372.46 113.32 L 372.46 129.02 C 372.46 130.96 374.03 132.52 375.96 132.52 L 387.68 132.52 C 388.77 132.52 389.75 132.02 390.39 131.24 C 390.88 130.63 391.18 129.86 391.18 129.02 L 391.18 113.32 C 391.18 111.38 389.61 109.82 387.68 109.82 Z M 387.68 109.82 L 375.96 109.82 C 374.03 109.82 372.46 111.38 372.46 113.32 L 372.46 129.02 C 372.46 130.96 374.03 132.52 375.96 132.52 L 387.68 132.52 C 388.77 132.52 389.75 132.02 390.39 131.24 C 390.88 130.63 391.18 129.86 391.18 129.02 L 391.18 113.32 C 391.18 111.38 389.61 109.82 387.68 109.82 Z M 360.66 117.89 L 292.18 117.89 C 290.25 117.89 288.68 119.46 288.68 121.39 L 288.68 129.01 C 288.68 130.94 290.25 132.51 292.18 132.51 L 360.66 132.51 C 362.59 132.51 364.16 130.94 364.16 129.01 L 364.16 121.39 C 364.16 119.46 362.59 117.89 360.66 117.89 Z M 362.32 110.32 L 290.08 110.32 C 289.31 110.32 288.68 110.95 288.68 111.72 C 288.68 112.49 289.31 113.12 290.08 113.12 L 362.32 113.12 C 363.09 113.12 363.72 112.49 363.72 111.72 C 363.72 110.95 363.09 110.32 362.32 110.32 Z M 362.32 110.32 L 290.08 110.32 C 289.31 110.32 288.68 110.95 288.68 111.72 C 288.68 112.49 289.31 113.12 290.08 113.12 L 362.32 113.12 C 363.09 113.12 363.72 112.49 363.72 111.72 C 363.72 110.95 363.09 110.32 362.32 110.32 Z M 360.66 117.89 L 292.18 117.89 C 290.25 117.89 288.68 119.46 288.68 121.39 L 288.68 129.01 C 288.68 130.94 290.25 132.51 292.18 132.51 L 360.66 132.51 C 362.59 132.51 364.16 130.94 364.16 129.01 L 364.16 121.39 C 364.16 119.46 362.59 117.89 360.66 117.89 Z M 387.68 109.82 L 375.96 109.82 C 374.03 109.82 372.46 111.38 372.46 113.32 L 372.46 129.02 C 372.46 130.96 374.03 132.52 375.96 132.52 L 387.68 132.52 C 388.77 132.52 389.75 132.02 390.39 131.24 C 390.88 130.63 391.18 129.86 391.18 129.02 L 391.18 113.32 C 391.18 111.38 389.61 109.82 387.68 109.82 Z M 387.68 109.82 L 375.96 109.82 C 374.03 109.82 372.46 111.38 372.46 113.32 L 372.46 129.02 C 372.46 130.96 374.03 132.52 375.96 132.52 L 387.68 132.52 C 388.77 132.52 389.75 132.02 390.39 131.24 C 390.88 130.63 391.18 129.86 391.18 129.02 L 391.18 113.32 C 391.18 111.38 389.61 109.82 387.68 109.82 Z M 360.66 117.89 L 292.18 117.89 C 290.25 117.89 288.68 119.46 288.68 121.39 L 288.68 129.01 C 288.68 130.94 290.25 132.51 292.18 132.51 L 360.66 132.51 C 362.59 132.51 364.16 130.94 364.16 129.01 L 364.16 121.39 C 364.16 119.46 362.59 117.89 360.66 117.89 Z M 290.08 113.12 L 362.32 113.12 C 363.09 113.12 363.72 112.49 363.72 111.72 C 363.72 110.95 363.09 110.32 362.32 110.32 L 290.08 110.32 C 289.31 110.32 288.68 110.95 288.68 111.72 C 288.68 112.49 289.31 113.12 290.08 113.12 Z M 394.86 101.79 L 285 101.79 C 282.3 101.79 280.1 103.99 280.1 106.69 L 280.1 135.1 C 280.1 136.4 280.62 137.59 281.46 138.47 L 281.62 138.64 C 282.51 139.48 283.7 140 285 140 L 394.86 140 C 396.06 140 397.16 139.57 398.01 138.85 C 399.07 137.96 399.76 136.61 399.76 135.1 L 399.76 106.69 C 399.76 103.99 397.56 101.79 394.86 101.79 Z M 394.86 137.2 L 285 137.2 C 283.84 137.2 282.9 136.26 282.9 135.1 L 282.9 106.69 C 282.9 105.53 283.84 104.59 285 104.59 L 394.86 104.59 C 396.02 104.59 396.96 105.53 396.96 106.69 L 396.96 135.1 C 396.96 135.83 396.58 136.47 396.01 136.85 C 395.67 137.07 395.28 137.2 394.86 137.2 Z M 387.68 109.82 L 375.96 109.82 C 374.03 109.82 372.46 111.38 372.46 113.32 L 372.46 129.02 C 372.46 130.96 374.03 132.52 375.96 132.52 L 387.68 132.52 C 388.77 132.52 389.75 132.02 390.39 131.24 C 390.88 130.63 391.18 129.86 391.18 129.02 L 391.18 113.32 C 391.18 111.38 389.61 109.82 387.68 109.82 Z M 360.66 117.89 L 292.18 117.89 C 290.25 117.89 288.68 119.46 288.68 121.39 L 288.68 129.01 C 288.68 130.94 290.25 132.51 292.18 132.51 L 360.66 132.51 C 362.59 132.51 364.16 130.94 364.16 129.01 L 364.16 121.39 C 364.16 119.46 362.59 117.89 360.66 117.89 Z M 290.08 113.12 L 362.32 113.12 C 363.09 113.12 363.72 112.49 363.72 111.72 C 363.72 110.95 363.09 110.32 362.32 110.32 L 290.08 110.32 C 289.31 110.32 288.68 110.95 288.68 111.72 C 288.68 112.49 289.31 113.12 290.08 113.12 Z M 362.32 110.32 L 290.08 110.32 C 289.31 110.32 288.68 110.95 288.68 111.72 C 288.68 112.49 289.31 113.12 290.08 113.12 L 362.32 113.12 C 363.09 113.12 363.72 112.49 363.72 111.72 C 363.72 110.95 363.09 110.32 362.32 110.32 Z M 360.66 117.89 L 292.18 117.89 C 290.25 117.89 288.68 119.46 288.68 121.39 L 288.68 129.01 C 288.68 130.94 290.25 132.51 292.18 132.51 L 360.66 132.51 C 362.59 132.51 364.16 130.94 364.16 129.01 L 364.16 121.39 C 364.16 119.46 362.59 117.89 360.66 117.89 Z M 387.68 109.82 L 375.96 109.82 C 374.03 109.82 372.46 111.38 372.46 113.32 L 372.46 129.02 C 372.46 130.96 374.03 132.52 375.96 132.52 L 387.68 132.52 C 388.77 132.52 389.75 132.02 390.39 131.24 C 390.88 130.63 391.18 129.86 391.18 129.02 L 391.18 113.32 C 391.18 111.38 389.61 109.82 387.68 109.82 Z M 387.68 109.82 L 375.96 109.82 C 374.03 109.82 372.46 111.38 372.46 113.32 L 372.46 129.02 C 372.46 130.96 374.03 132.52 375.96 132.52 L 387.68 132.52 C 388.77 132.52 389.75 132.02 390.39 131.24 C 390.88 130.63 391.18 129.86 391.18 129.02 L 391.18 113.32 C 391.18 111.38 389.61 109.82 387.68 109.82 Z M 360.66 117.89 L 292.18 117.89 C 290.25 117.89 288.68 119.46 288.68 121.39 L 288.68 129.01 C 288.68 130.94 290.25 132.51 292.18 132.51 L 360.66 132.51 C 362.59 132.51 364.16 130.94 364.16 129.01 L 364.16 121.39 C 364.16 119.46 362.59 117.89 360.66 117.89 Z M 362.32 110.32 L 290.08 110.32 C 289.31 110.32 288.68 110.95 288.68 111.72 C 288.68 112.49 289.31 113.12 290.08 113.12 L 362.32 113.12 C 363.09 113.12 363.72 112.49 363.72 111.72 C 363.72 110.95 363.09 110.32 362.32 110.32 Z M 362.32 110.32 L 290.08 110.32 C 289.31 110.32 288.68 110.95 288.68 111.72 C 288.68 112.49 289.31 113.12 290.08 113.12 L 362.32 113.12 C 363.09 113.12 363.72 112.49 363.72 111.72 C 363.72 110.95 363.09 110.32 362.32 110.32 Z M 360.66 117.89 L 292.18 117.89 C 290.25 117.89 288.68 119.46 288.68 121.39 L 288.68 129.01 C 288.68 130.94 290.25 132.51 292.18 132.51 L 360.66 132.51 C 362.59 132.51 364.16 130.94 364.16 129.01 L 364.16 121.39 C 364.16 119.46 362.59 117.89 360.66 117.89 Z M 387.68 109.82 L 375.96 109.82 C 374.03 109.82 372.46 111.38 372.46 113.32 L 372.46 129.02 C 372.46 130.96 374.03 132.52 375.96 132.52 L 387.68 132.52 C 388.77 132.52 389.75 132.02 390.39 131.24 C 390.88 130.63 391.18 129.86 391.18 129.02 L 391.18 113.32 C 391.18 111.38 389.61 109.82 387.68 109.82 Z M 398.92 0.83 L 398.91 0.8 C 398.39 0.31 397.69 0 396.93 0 L 282.8 0 C 281.26 0 280 1.26 280 2.8 L 280 68.84 C 280 69.61 280.31 70.31 280.83 70.81 C 281.33 71.32 282.03 71.64 282.8 71.64 L 328.54 71.64 L 328.54 84.39 L 313.56 84.39 C 312.79 84.39 312.16 85.02 312.16 85.79 L 312.16 87.5 C 312.16 88.27 312.79 88.9 313.56 88.9 L 366.59 88.9 C 367.36 88.9 367.99 88.27 367.99 87.5 L 367.99 85.79 C 367.99 85.02 367.36 84.39 366.59 84.39 L 351.5 84.39 L 351.5 71.64 L 396.93 71.64 C 398.47 71.64 399.73 70.38 399.73 68.84 L 399.73 2.8 C 399.73 2.03 399.41 1.33 398.92 0.83 Z M 396.93 68.84 L 282.8 68.84 L 282.8 2.8 L 396.93 2.8 L 396.93 68.84 C 396.93 68.84 396.93 68.84 396.93 68.84 Z M 362.32 110.32 L 290.08 110.32 C 289.31 110.32 288.68 110.95 288.68 111.72 C 288.68 112.49 289.31 113.12 290.08 113.12 L 362.32 113.12 C 363.09 113.12 363.72 112.49 363.72 111.72 C 363.72 110.95 363.09 110.32 362.32 110.32 Z M 360.66 117.89 L 292.18 117.89 C 290.25 117.89 288.68 119.46 288.68 121.39 L 288.68 129.01 C 288.68 130.94 290.25 132.51 292.18 132.51 L 360.66 132.51 C 362.59 132.51 364.16 130.94 364.16 129.01 L 364.16 121.39 C 364.16 119.46 362.59 117.89 360.66 117.89 Z M 387.68 109.82 L 375.96 109.82 C 374.03 109.82 372.46 111.38 372.46 113.32 L 372.46 129.02 C 372.46 130.96 374.03 132.52 375.96 132.52 L 387.68 132.52 C 388.77 132.52 389.75 132.02 390.39 131.24 C 390.88 130.63 391.18 129.86 391.18 129.02 L 391.18 113.32 C 391.18 111.38 389.61 109.82 387.68 109.82 Z" fill="#000000" style="fill: light-dark(rgb(0, 0, 0), rgb(237, 237, 237));" stroke="none" pointer-events="all"/></g></g><g data-cell-id="HpU3hQ6QYVwBgwJFLfaI-4"><g><path d="M 118.44 119.56 L 280.96 120.54" fill="none" stroke="#000000" style="stroke: light-dark(rgb(0, 0, 0), rgb(255, 255, 255));" stroke-width="5" stroke-miterlimit="10" pointer-events="stroke"/></g></g><g data-cell-id="HpU3hQ6QYVwBgwJFLfaI-5"><g><path d="M 160 70 L 200 110 L 240 70 L 250 80 L 210 120 L 250 160 L 240 170 L 200 130 L 160 170 L 150 160 L 190 120 L 150 80 Z" fill="#ff0000" style="fill: light-dark(rgb(255, 0, 0), rgb(255, 144, 144));" stroke="none" pointer-events="all"/></g></g></g></g></g></svg>