<?xml version="1.0" encoding="utf-8"?>
<!-- Generator: Adobe Illustrator 27.2.0, SVG Export Plug-In . SVG Version: 6.00 Build 0)  -->
<svg version="1.1" id="Laag_1" xmlns="http://www.w3.org/2000/svg" xmlns:xlink="http://www.w3.org/1999/xlink" x="0px" y="0px"
	 viewBox="0 0 211.8 62.4" style="enable-background:new 0 0 211.8 62.4;" xml:space="preserve">
<style type="text/css">
	.st0{clip-path:url(#SVGID_00000073708308218888104470000012396397272782837137_);fill:#7C7B7B;}
	.st1{clip-path:url(#SVGID_00000105410072867840021790000001651194923701615004_);fill:#040305;}
	.st2{clip-path:url(#SVGID_00000161605424439577245640000000571360482301287572_);fill:#040305;}
	.st3{clip-path:url(#SVGID_00000114063758437502494050000001870388082681307289_);fill:#040305;}
	.st4{clip-path:url(#SVGID_00000085216550784469214850000007012567736979224196_);fill:#040305;}
	.st5{clip-path:url(#SVGID_00000084500078102229570490000017789828920742050976_);fill:#005095;}
	.st6{clip-path:url(#SVGID_00000159443257656634832040000016331097454055796406_);fill:#EE7326;}
	.st7{clip-path:url(#SVGID_00000106854434929417971320000012131832601975124150_);fill:#005095;}
	.st8{fill:#040305;}
	.st9{clip-path:url(#SVGID_00000174590045542064093390000010023428381360887996_);fill:#040305;}
</style>
<g>
	<g>
		<defs>
			<rect id="SVGID_1_" x="-14.5" width="240.9" height="62.4"/>
		</defs>
		<clipPath id="SVGID_00000026154827584834091340000003924318013875414427_">
			<use xlink:href="#SVGID_1_"  style="overflow:visible;"/>
		</clipPath>
		<path style="clip-path:url(#SVGID_00000026154827584834091340000003924318013875414427_);fill:#7C7B7B;" d="M207.4,48.6
			c-0.2,0.1-0.4,0.2-0.7,0.2s-0.6-0.1-0.8-0.2c-0.2-0.2-0.3-0.4-0.3-0.6h-0.8c0,0.3,0.1,0.5,0.2,0.8c0.2,0.2,0.4,0.4,0.7,0.5
			s0.6,0.2,1,0.2c0.5,0,1-0.1,1.3-0.4c0.3-0.2,0.5-0.6,0.5-1c0-0.2-0.1-0.5-0.2-0.6c-0.1-0.2-0.3-0.3-0.5-0.4
			c-0.2-0.1-0.6-0.2-1-0.3s-0.7-0.2-0.8-0.3s-0.2-0.2-0.2-0.4s0.1-0.4,0.2-0.5c0.2-0.1,0.4-0.2,0.7-0.2s0.5,0.1,0.7,0.2
			c0.2,0.2,0.3,0.3,0.3,0.6h0.8c0-0.4-0.2-0.8-0.5-1c-0.3-0.3-0.7-0.4-1.3-0.4c-0.5,0-0.9,0.1-1.2,0.4c-0.3,0.3-0.5,0.6-0.5,1
			c0,0.2,0.1,0.4,0.2,0.6c0.1,0.2,0.3,0.3,0.5,0.4c0.2,0.1,0.6,0.2,1,0.3s0.7,0.2,0.8,0.3c0.2,0.1,0.2,0.3,0.2,0.5
			C207.7,48.3,207.6,48.5,207.4,48.6 M202.4,43.6v1.1h-0.8v0.6h0.8v2.9c0,0.4,0.1,0.7,0.3,0.9s0.4,0.3,0.8,0.3c0.2,0,0.4,0,0.6-0.1
			v-0.6c-0.2,0-0.3,0.1-0.4,0.1c-0.2,0-0.3,0-0.4-0.1c-0.1-0.1-0.1-0.2-0.1-0.4v-2.9h0.9v-0.6h-0.9v-1.1h-0.8V43.6z M197.3,44.7v4.6
			h0.8V46c0.1-0.2,0.3-0.4,0.5-0.5s0.4-0.2,0.7-0.2s0.5,0.1,0.7,0.2c0.1,0.2,0.2,0.4,0.2,0.7v3.1h0.8v-3c0-1.1-0.5-1.6-1.5-1.6
			c-0.6,0-1,0.2-1.4,0.7v-0.6h-0.8V44.7z M195.3,45.6c0.2,0.2,0.3,0.5,0.3,0.9v0.1h-2.3c0.1-0.4,0.2-0.7,0.4-1s0.5-0.3,0.8-0.3
			S195.1,45.4,195.3,45.6 M196.3,48.5l-0.5-0.4c-0.1,0.2-0.3,0.3-0.5,0.5c-0.2,0.1-0.4,0.2-0.7,0.2c-0.4,0-0.7-0.1-1-0.4
			c-0.3-0.3-0.4-0.6-0.4-1.1h3.1V47c0-0.7-0.2-1.3-0.5-1.7s-0.8-0.6-1.4-0.6c-0.4,0-0.7,0.1-1,0.3s-0.6,0.5-0.7,0.8
			c-0.2,0.4-0.3,0.8-0.3,1.2v0.1c0,0.7,0.2,1.2,0.6,1.6c0.4,0.4,0.9,0.6,1.5,0.6C195.4,49.4,195.9,49.1,196.3,48.5 M185,44.7v4.6
			h0.8V46c0.2-0.4,0.5-0.7,1.1-0.7c0.7,0,1,0.3,1,1v3h0.8v-3.1c0-0.3,0.1-0.5,0.3-0.7s0.4-0.3,0.7-0.3c0.4,0,0.6,0.1,0.8,0.2
			c0.2,0.2,0.2,0.4,0.2,0.7v3h0.8V46c0-1.1-0.5-1.6-1.5-1.6c-0.3,0-0.6,0.1-0.9,0.2c-0.2,0.1-0.4,0.3-0.6,0.5
			c-0.2-0.5-0.7-0.7-1.3-0.7s-1,0.2-1.4,0.6v-0.5H185V44.7z M180.2,44.7v4.6h0.8V46c0.1-0.2,0.3-0.4,0.5-0.5s0.4-0.2,0.7-0.2
			s0.5,0.1,0.7,0.2c0.1,0.2,0.2,0.4,0.2,0.7v3.1h0.8v-3c0-1.1-0.5-1.6-1.5-1.6c-0.6,0-1,0.2-1.4,0.7v-0.6h-0.8V44.7z M176.2,45.8
			c0.2-0.3,0.6-0.5,0.9-0.5c0.4,0,0.7,0.2,1,0.5c0.2,0.3,0.4,0.7,0.4,1.2c0,0.6-0.1,1-0.4,1.3c-0.2,0.3-0.6,0.5-1,0.5
			s-0.7-0.2-1-0.5s-0.4-0.7-0.4-1.2C175.8,46.5,175.9,46.1,176.2,45.8 M175,47c0,0.7,0.2,1.3,0.6,1.7c0.4,0.4,0.9,0.7,1.5,0.7
			c0.4,0,0.8-0.1,1.1-0.3s0.6-0.5,0.7-0.8c0.2-0.4,0.3-0.8,0.3-1.2V47c0-0.7-0.2-1.3-0.6-1.7c-0.4-0.4-0.9-0.7-1.5-0.7
			c-0.4,0-0.8,0.1-1.1,0.3s-0.6,0.5-0.7,0.8C175.1,46.1,175,46.5,175,47L175,47z M174.6,44.7c-0.1,0-0.2-0.1-0.4-0.1
			c-0.5,0-0.8,0.2-1.1,0.6v-0.5h-0.8v4.6h0.8V46c0.2-0.4,0.5-0.7,1.1-0.7c0.1,0,0.3,0,0.4,0V44.7z M170.4,43.8
			c0.1,0.1,0.2,0.1,0.3,0.1c0.2,0,0.3,0,0.3-0.1c0.1-0.1,0.1-0.2,0.1-0.3s0-0.2-0.1-0.3s-0.2-0.1-0.3-0.1c-0.2,0-0.3,0-0.3,0.1
			c-0.1,0.1-0.1,0.2-0.1,0.3C170.2,43.6,170.3,43.7,170.4,43.8 M171.1,44.7h-0.8v4.6h0.8V44.7z M166.4,44.7h-0.8l1.7,4.6h0.6
			l1.7-4.6h-0.8l-1.1,3.5L166.4,44.7z M161.2,44.7v4.6h0.8V46c0.1-0.2,0.3-0.4,0.5-0.5s0.4-0.2,0.7-0.2s0.5,0.1,0.7,0.2
			c0.2,0.2,0.2,0.4,0.2,0.7v3.1h0.8v-3c0-1.1-0.5-1.6-1.5-1.6c-0.6,0-1,0.2-1.4,0.7v-0.6h-0.8V44.7z M159.9,45.8h-2.7v-2h3.1v-0.7
			h-3.9v6.2h3.9v-0.7h-3.1v-2.2h2.7V45.8z M150.1,42.8h-0.8v6.5h0.8V46c0.1-0.2,0.3-0.4,0.5-0.5s0.4-0.2,0.7-0.2s0.5,0.1,0.7,0.2
			c0.1,0.2,0.2,0.4,0.2,0.7v3.1h0.8v-3c0-1.1-0.5-1.6-1.5-1.6c-0.6,0-1,0.2-1.4,0.6V42.8z M145.6,48.4c-0.2-0.3-0.3-0.7-0.3-1.2V47
			c0-0.5,0.1-1,0.3-1.3s0.5-0.4,0.9-0.4c0.3,0,0.6,0.1,0.8,0.3s0.3,0.4,0.3,0.7h0.7c0-0.5-0.2-0.9-0.5-1.2s-0.8-0.5-1.3-0.5
			c-0.4,0-0.8,0.1-1.1,0.3s-0.5,0.5-0.7,0.8s-0.2,0.7-0.2,1.2V47c0,0.7,0.2,1.3,0.6,1.7c0.4,0.4,0.9,0.6,1.5,0.6
			c0.3,0,0.6-0.1,0.9-0.2c0.3-0.1,0.5-0.3,0.7-0.6c0.2-0.2,0.3-0.5,0.3-0.8h-0.7c0,0.3-0.1,0.5-0.3,0.6c-0.2,0.2-0.5,0.3-0.7,0.3
			C146.1,48.8,145.8,48.6,145.6,48.4 M144.1,44.7c-0.1,0-0.2-0.1-0.4-0.1c-0.5,0-0.8,0.2-1.1,0.6v-0.5h-0.8v4.6h0.8V46
			c0.2-0.4,0.5-0.7,1.1-0.7c0.1,0,0.3,0,0.4,0V44.7z M138,48.5c-0.2-0.1-0.2-0.3-0.2-0.6c0-0.6,0.5-0.8,1.4-0.8h0.6V48
			c-0.1,0.2-0.3,0.4-0.5,0.5s-0.5,0.2-0.7,0.2C138.4,48.7,138.1,48.7,138,48.5 M140.8,49.3L140.8,49.3c-0.1-0.3-0.2-0.7-0.2-1.1
			v-2.1c0-0.5-0.2-0.8-0.5-1.1s-0.7-0.4-1.2-0.4c-0.3,0-0.6,0.1-0.9,0.2s-0.5,0.3-0.7,0.5s-0.2,0.4-0.2,0.7h0.8
			c0-0.2,0.1-0.4,0.3-0.5s0.4-0.2,0.7-0.2s0.6,0.1,0.7,0.2c0.2,0.2,0.2,0.4,0.2,0.7v0.4H139c-0.7,0-1.2,0.1-1.5,0.4
			c-0.4,0.3-0.5,0.6-0.5,1.1c0,0.4,0.1,0.7,0.4,1c0.3,0.3,0.7,0.4,1.1,0.4c0.5,0,0.9-0.2,1.3-0.6c0,0.2,0.1,0.4,0.1,0.5h0.9V49.3z
			 M135.1,45.6c0.2,0.2,0.3,0.5,0.3,0.9v0.1h-2.3c0.1-0.4,0.2-0.7,0.4-1c0.2-0.2,0.5-0.3,0.8-0.3S134.9,45.4,135.1,45.6 M136.1,48.5
			l-0.5-0.4c-0.1,0.2-0.3,0.3-0.5,0.5c-0.2,0.1-0.4,0.2-0.7,0.2c-0.4,0-0.7-0.1-1-0.4c-0.3-0.3-0.4-0.6-0.4-1.1h3.1V47
			c0-0.7-0.2-1.3-0.5-1.7s-0.8-0.6-1.4-0.6c-0.4,0-0.7,0.1-1,0.3s-0.6,0.5-0.7,0.8c-0.2,0.4-0.3,0.8-0.3,1.2v0.1
			c0,0.7,0.2,1.2,0.6,1.6c0.4,0.4,0.9,0.6,1.5,0.6C135.1,49.4,135.7,49.1,136.1,48.5 M130.4,48.6c-0.2,0.1-0.4,0.2-0.7,0.2
			s-0.6-0.1-0.8-0.2c-0.2-0.2-0.3-0.4-0.3-0.6h-0.8c0,0.3,0.1,0.5,0.2,0.8c0.2,0.2,0.4,0.4,0.7,0.5s0.6,0.2,1,0.2
			c0.5,0,1-0.1,1.3-0.4c0.3-0.2,0.5-0.6,0.5-1c0-0.2-0.1-0.5-0.2-0.6c-0.1-0.2-0.3-0.3-0.5-0.4c-0.2-0.1-0.6-0.2-1-0.3
			s-0.7-0.2-0.8-0.3c-0.2-0.1-0.2-0.2-0.2-0.4s0.1-0.4,0.2-0.5s0.4-0.2,0.7-0.2s0.5,0.1,0.7,0.2c0.2,0.2,0.3,0.3,0.3,0.6h0.8
			c0-0.4-0.2-0.8-0.5-1c-0.3-0.3-0.8-0.4-1.3-0.4s-0.9,0.1-1.2,0.4c-0.3,0.3-0.5,0.6-0.5,1c0,0.2,0.1,0.4,0.2,0.6s0.3,0.3,0.5,0.4
			c0.2,0.1,0.6,0.2,0.9,0.3c0.4,0.1,0.7,0.2,0.8,0.3c0.2,0.1,0.2,0.3,0.2,0.5C130.6,48.3,130.5,48.5,130.4,48.6 M125.9,45.6
			c0.2,0.2,0.3,0.5,0.3,0.9v0.1h-2.3c0.1-0.4,0.2-0.7,0.4-1s0.5-0.3,0.8-0.3C125.5,45.3,125.7,45.4,125.9,45.6 M127,48.5l-0.5-0.4
			c-0.1,0.2-0.3,0.3-0.5,0.5c-0.2,0.1-0.4,0.2-0.7,0.2c-0.4,0-0.7-0.1-1-0.4c-0.3-0.3-0.4-0.6-0.4-1.1h3.1V47c0-0.7-0.2-1.3-0.5-1.7
			s-0.8-0.6-1.4-0.6c-0.4,0-0.7,0.1-1,0.3s-0.6,0.5-0.7,0.8c-0.2,0.4-0.3,0.8-0.3,1.2v0.1c0,0.7,0.2,1.2,0.6,1.6
			c0.4,0.4,0.9,0.6,1.5,0.6C126,49.4,126.6,49.1,127,48.5 M118.9,43.8h1.3c0.4,0,0.8,0.1,1,0.3s0.3,0.5,0.3,0.9s-0.1,0.6-0.4,0.8
			c-0.2,0.2-0.6,0.3-1,0.3h-1.3L118.9,43.8L118.9,43.8z M121.7,49.3h0.9v-0.1l-1.5-2.6c0.4-0.1,0.7-0.4,0.9-0.6s0.3-0.6,0.3-1
			c0-0.6-0.2-1.1-0.6-1.4c-0.4-0.3-0.9-0.5-1.6-0.5H118v6.2h0.8v-2.5h1.5L121.7,49.3z M111.8,45.8c0.2-0.3,0.5-0.4,0.9-0.4
			c0.5,0,0.9,0.2,1.1,0.7v2.1c-0.2,0.4-0.6,0.7-1.1,0.7c-0.4,0-0.7-0.1-0.9-0.4c-0.2-0.3-0.3-0.7-0.3-1.2
			C111.5,46.5,111.6,46.1,111.8,45.8 M110.7,47.1c0,0.7,0.2,1.3,0.5,1.7s0.8,0.7,1.3,0.7c0.6,0,1-0.2,1.3-0.6v0.5h0.7v-6.5h-0.8v2.4
			c-0.3-0.4-0.7-0.6-1.3-0.6c-0.5,0-1,0.2-1.3,0.6C110.8,45.7,110.7,46.3,110.7,47.1L110.7,47.1z M108.8,45.6
			c0.2,0.2,0.3,0.5,0.3,0.9v0.1h-2.3c0.1-0.4,0.2-0.7,0.4-1c0.2-0.2,0.5-0.3,0.8-0.3C108.4,45.3,108.6,45.4,108.8,45.6 M109.9,48.5
			l-0.5-0.4c-0.1,0.2-0.3,0.3-0.5,0.5c-0.2,0.1-0.4,0.2-0.7,0.2c-0.4,0-0.7-0.1-1-0.4c-0.3-0.3-0.4-0.6-0.4-1.1h3.1V47
			c0-0.7-0.2-1.3-0.5-1.7s-0.8-0.6-1.4-0.6c-0.4,0-0.7,0.1-1,0.3s-0.6,0.5-0.7,0.8c-0.2,0.4-0.3,0.8-0.3,1.2v0.1
			c0,0.7,0.2,1.2,0.6,1.6c0.4,0.4,0.9,0.6,1.5,0.6C108.9,49.4,109.5,49.1,109.9,48.5 M103.7,43.6v1.1h-0.8v0.6h0.8v2.9
			c0,0.4,0.1,0.7,0.3,0.9c0.2,0.2,0.4,0.3,0.8,0.3c0.2,0,0.4,0,0.6-0.1v-0.6c-0.2,0-0.3,0.1-0.4,0.1c-0.2,0-0.3,0-0.4-0.1
			s-0.1-0.2-0.1-0.4v-2.9h0.9v-0.6h-0.9v-1.1h-0.8V43.6z M101.3,48.6c-0.2,0.1-0.4,0.2-0.7,0.2c-0.3,0-0.6-0.1-0.8-0.2
			c-0.2-0.2-0.3-0.4-0.3-0.6h-0.8c0,0.3,0.1,0.5,0.2,0.8c0.2,0.2,0.4,0.4,0.7,0.5c0.3,0.1,0.6,0.2,1,0.2c0.5,0,1-0.1,1.3-0.4
			c0.3-0.2,0.5-0.6,0.5-1c0-0.2-0.1-0.5-0.2-0.6c-0.1-0.2-0.3-0.3-0.5-0.4c-0.2-0.1-0.6-0.2-1-0.3s-0.7-0.2-0.8-0.3
			c-0.2-0.1-0.2-0.2-0.2-0.4s0.1-0.4,0.2-0.5c0.2-0.1,0.4-0.2,0.7-0.2c0.3,0,0.5,0.1,0.7,0.2c0.2,0.2,0.3,0.3,0.3,0.6h0.8
			c0-0.4-0.2-0.8-0.5-1c-0.3-0.3-0.8-0.4-1.3-0.4s-0.9,0.1-1.2,0.4c-0.3,0.3-0.5,0.6-0.5,1c0,0.2,0.1,0.4,0.2,0.6s0.3,0.3,0.5,0.4
			c0.2,0.1,0.6,0.2,1,0.3s0.7,0.2,0.8,0.3c0.2,0.1,0.2,0.3,0.2,0.5C101.6,48.3,101.5,48.5,101.3,48.6 M96.9,49.3h0.8v-4.6h-0.8v3.4
			c-0.2,0.4-0.6,0.7-1.2,0.7s-0.9-0.3-0.9-1v-3H94v3c0,0.6,0.1,1,0.4,1.3s0.6,0.4,1.1,0.4c0.6,0,1-0.2,1.4-0.5V49.3z M93.3,44.7
			c-0.1,0-0.2-0.1-0.3-0.1c-0.5,0-0.8,0.2-1.1,0.6v-0.5h-0.8v4.6h0.8V46c0.2-0.4,0.5-0.7,1.1-0.7c0.1,0,0.3,0,0.4,0L93.3,44.7
			L93.3,44.7z M90.6,43.1h-4.8v0.7h2v5.5h0.8v-5.5h2V43.1z M82.4,49.3v-4h1v-0.6h-1v-0.5c0-0.3,0.1-0.5,0.2-0.6s0.3-0.2,0.6-0.2
			c0.2,0,0.3,0,0.4,0v-0.6c-0.2,0-0.4-0.1-0.5-0.1c-0.5,0-0.9,0.1-1.1,0.4c-0.3,0.3-0.4,0.7-0.4,1.1v0.5h-0.7v0.6h0.7v4
			C81.6,49.3,82.4,49.3,82.4,49.3z M77.2,45.8c0.2-0.3,0.6-0.5,0.9-0.5c0.4,0,0.7,0.2,1,0.5c0.2,0.3,0.4,0.7,0.4,1.2
			c0,0.6-0.1,1-0.4,1.3s-0.6,0.5-1,0.5s-0.7-0.2-1-0.5c-0.2-0.3-0.4-0.7-0.4-1.2C76.8,46.5,76.9,46.1,77.2,45.8 M76,47
			c0,0.7,0.2,1.3,0.6,1.7s0.9,0.7,1.5,0.7c0.4,0,0.8-0.1,1.1-0.3c0.3-0.2,0.6-0.5,0.7-0.8c0.2-0.4,0.3-0.8,0.3-1.2V47
			c0-0.7-0.2-1.3-0.6-1.7s-0.9-0.7-1.5-0.7c-0.4,0-0.8,0.1-1.1,0.3s-0.6,0.5-0.7,0.8S76,46.5,76,47L76,47z M72.5,49.3h1l-2-2.7
			l1.8-1.9h-1l-1.4,1.5l-0.4,0.5v-4h-0.8v6.5h0.8v-1.6l0.5-0.5L72.5,49.3z M68.9,44.7c-0.1,0-0.2-0.1-0.3-0.1
			c-0.5,0-0.8,0.2-1.1,0.6v-0.5h-0.8v4.6h0.8V46c0.2-0.4,0.5-0.7,1.1-0.7c0.1,0,0.3,0,0.4,0L68.9,44.7L68.9,44.7z M62.7,45.8
			c0.2-0.3,0.6-0.5,0.9-0.5c0.4,0,0.7,0.2,1,0.5c0.2,0.3,0.4,0.7,0.4,1.2c0,0.6-0.1,1-0.4,1.3s-0.6,0.5-1,0.5s-0.7-0.2-1-0.5
			c-0.2-0.3-0.4-0.7-0.4-1.2C62.3,46.5,62.4,46.1,62.7,45.8 M61.5,47c0,0.7,0.2,1.3,0.6,1.7s0.9,0.7,1.5,0.7c0.4,0,0.8-0.1,1.1-0.3
			c0.3-0.2,0.6-0.5,0.7-0.8c0.2-0.4,0.3-0.8,0.3-1.2V47c0-0.7-0.2-1.3-0.6-1.7s-0.9-0.7-1.5-0.7c-0.4,0-0.8,0.1-1.1,0.3
			c-0.3,0.2-0.6,0.5-0.7,0.8C61.6,46.1,61.5,46.5,61.5,47L61.5,47z M58.1,44.7h-0.6l-1.1,3.5l-0.9-3.5h-0.8l1.3,4.6h0.6l1.1-3.5
			l1.1,3.5h0.6l1.3-4.6h-0.8L59,48.2L58.1,44.7z M52.6,43.6v1.1h-0.8v0.6h0.8v2.9c0,0.4,0.1,0.7,0.3,0.9c0.2,0.2,0.4,0.3,0.8,0.3
			c0.2,0,0.4,0,0.6-0.1v-0.6c-0.2,0-0.3,0.1-0.4,0.1c-0.2,0-0.3,0-0.4-0.1s-0.1-0.2-0.1-0.4v-2.9h0.9v-0.6h-0.9v-1.1h-0.8V43.6z
			 M50.3,45.6c0.2,0.2,0.3,0.5,0.3,0.9v0.1h-2.3c0.1-0.4,0.2-0.7,0.4-1s0.5-0.3,0.8-0.3C49.8,45.3,50.1,45.4,50.3,45.6 M51.3,48.5
			l-0.5-0.4c-0.1,0.2-0.3,0.3-0.5,0.5c-0.2,0.1-0.4,0.2-0.7,0.2c-0.4,0-0.7-0.1-1-0.4c-0.3-0.3-0.4-0.6-0.4-1.1h3.1V47
			c0-0.7-0.2-1.3-0.5-1.7s-0.8-0.6-1.4-0.6c-0.4,0-0.7,0.1-1,0.3s-0.6,0.5-0.7,0.8c-0.1,0.4-0.2,0.8-0.2,1.2v0.1
			c0,0.7,0.2,1.2,0.6,1.6c0.4,0.4,0.9,0.6,1.5,0.6C50.4,49.4,50.9,49.1,51.3,48.5 M46.3,43.1h-0.8v4.8l-3.1-4.8h-0.8v6.2h0.8v-4.8
			l3.1,4.8h0.8V43.1z M34.5,44.7v4.6h0.8V46c0.1-0.2,0.3-0.4,0.5-0.5s0.4-0.2,0.7-0.2s0.5,0.1,0.7,0.2c0.1,0.2,0.2,0.4,0.2,0.7v3.1
			h0.8v-3c0-1.1-0.5-1.6-1.5-1.6c-0.6,0-1,0.2-1.4,0.7v-0.6h-0.8V44.7z M30.6,48.5c-0.2-0.1-0.2-0.3-0.2-0.6c0-0.6,0.5-0.8,1.4-0.8
			h0.6V48c-0.1,0.2-0.3,0.4-0.5,0.5s-0.5,0.2-0.7,0.2C31,48.7,30.8,48.7,30.6,48.5 M33.4,49.3L33.4,49.3c-0.1-0.3-0.2-0.7-0.2-1.1
			v-2.1c0-0.5-0.2-0.8-0.5-1.1s-0.7-0.4-1.2-0.4c-0.3,0-0.6,0.1-0.9,0.2s-0.5,0.3-0.7,0.5s-0.2,0.4-0.2,0.7h0.8
			c0-0.2,0.1-0.4,0.3-0.5s0.4-0.2,0.7-0.2s0.6,0.1,0.7,0.2c0.2,0.2,0.2,0.4,0.2,0.7v0.4h-0.8c-0.7,0-1.2,0.1-1.5,0.4
			c-0.4,0.3-0.5,0.6-0.5,1.1c0,0.4,0.1,0.7,0.4,1c0.3,0.3,0.7,0.4,1.1,0.4c0.5,0,0.9-0.2,1.3-0.6c0,0.2,0.1,0.4,0.1,0.5h0.9V49.3z
			 M27.7,45.6c0.2,0.2,0.3,0.5,0.3,0.9v0.1h-2.3c0.1-0.4,0.2-0.7,0.4-1s0.5-0.3,0.8-0.3S27.5,45.4,27.7,45.6 M28.8,48.5l-0.5-0.4
			c-0.1,0.2-0.3,0.3-0.5,0.5c-0.2,0.1-0.4,0.2-0.7,0.2c-0.4,0-0.7-0.1-1-0.4c-0.3-0.3-0.4-0.6-0.4-1.1h3.1V47c0-0.7-0.2-1.3-0.5-1.7
			s-0.8-0.6-1.4-0.6c-0.4,0-0.7,0.1-1,0.3s-0.6,0.5-0.7,0.8c-0.2,0.4-0.3,0.8-0.3,1.2v0.1c0,0.7,0.2,1.2,0.6,1.6
			c0.4,0.4,0.9,0.6,1.5,0.6C27.8,49.4,28.4,49.1,28.8,48.5 M23,48.3c-0.2,0.3-0.5,0.5-0.9,0.5c-0.5,0-0.8-0.2-1.1-0.6V46
			c0.2-0.4,0.6-0.6,1.1-0.6c0.4,0,0.7,0.2,0.9,0.5s0.3,0.7,0.3,1.2C23.3,47.6,23.2,48,23,48.3 M24.1,47c0-0.7-0.2-1.3-0.5-1.7
			s-0.8-0.6-1.3-0.6c-0.6,0-1,0.2-1.3,0.6v-0.5h-0.7v6.4h0.8V49c0.3,0.4,0.8,0.5,1.3,0.5s1-0.2,1.3-0.6S24.1,47.8,24.1,47L24.1,47z
			 M16.2,45.8c0.2-0.3,0.6-0.5,0.9-0.5c0.4,0,0.7,0.2,1,0.5c0.2,0.3,0.4,0.7,0.4,1.2c0,0.6-0.1,1-0.4,1.3s-0.6,0.5-1,0.5
			s-0.7-0.2-1-0.5c-0.2-0.3-0.4-0.7-0.4-1.2C15.8,46.5,15.9,46.1,16.2,45.8 M15,47c0,0.7,0.2,1.3,0.6,1.7s0.9,0.7,1.5,0.7
			c0.4,0,0.8-0.1,1.1-0.3s0.6-0.5,0.7-0.8c0.2-0.4,0.3-0.8,0.3-1.2V47c0-0.7-0.2-1.3-0.6-1.7c-0.4-0.4-0.9-0.7-1.5-0.7
			c-0.4,0-0.8,0.1-1.1,0.3c-0.3,0.2-0.6,0.5-0.7,0.8C15.1,46.1,15,46.5,15,47L15,47z M14.6,44.7c-0.1,0-0.2-0.1-0.3-0.1
			c-0.5,0-0.8,0.2-1.1,0.6v-0.5h-0.8v4.6h0.8V46c0.2-0.4,0.5-0.7,1.1-0.7c0.1,0,0.3,0,0.4,0v-0.6H14.6z M10.4,49.3h0.8v-4.6h-0.8
			v3.4c-0.2,0.4-0.6,0.7-1.2,0.7s-0.9-0.3-0.9-1v-3H7.5v3c0,0.6,0.1,1,0.4,1.3c0.3,0.3,0.6,0.4,1.1,0.4c0.6,0,1-0.2,1.4-0.5V49.3z
			 M6.3,45.8H3.6v-2h3.1v-0.7H2.8v6.2h3.9v-0.7H3.6v-2.2h2.7V45.8z"/>
	</g>
	<g>
		<defs>
			<rect id="SVGID_00000034077053229137718240000002219028084680776078_" x="-14.5" width="240.9" height="62.4"/>
		</defs>
		<clipPath id="SVGID_00000044156394755105504500000013511179982111389609_">
			<use xlink:href="#SVGID_00000034077053229137718240000002219028084680776078_"  style="overflow:visible;"/>
		</clipPath>
		<path style="clip-path:url(#SVGID_00000044156394755105504500000013511179982111389609_);fill:#040305;" d="M47.9,23.3
			c0.2-0.2,0.4-0.5,0.4-0.8c0-1.1-0.2-2.1-0.6-3c-0.4-0.9-0.9-1.6-1.6-2.3c-0.6-0.6-1.4-1.1-2.2-1.5s-1.7-0.5-2.6-0.5
			c-1.2,0-2.4,0.3-3.4,1c-1.1,0.6-2,1.6-2.6,2.8c-0.7,1.2-1,2.7-1,4.4c0,1.5,0.3,2.9,1,4c0.6,1.2,1.6,2.1,2.7,2.7
			c1.2,0.7,2.5,1,4.1,1c1.1,0,2-0.2,3-0.7s1.7-1,2.2-1.6c0.3-0.3,0.5-0.6,0.5-0.9s-0.1-0.5-0.3-0.7s-0.4-0.3-0.7-0.3
			S46.3,27,46,27.2c-0.3,0.3-0.6,0.5-0.9,0.8c-0.4,0.3-0.8,0.5-1.3,0.7S42.7,29,42,29c-1.1,0-2.1-0.2-2.9-0.7
			c-0.8-0.5-1.5-1.2-1.9-2c-0.4-0.7-0.6-1.6-0.7-2.6h10.7C47.4,23.6,47.6,23.5,47.9,23.3 M37.9,18.8c0.5-0.4,1-0.8,1.6-1
			s1.2-0.3,1.7-0.3c0.7,0,1.4,0.2,2.1,0.5c0.7,0.3,1.2,0.8,1.7,1.3c0.5,0.6,0.7,1.3,0.8,2.1v0.2h-9.3c0.1-0.4,0.2-0.7,0.3-1
			C37.1,19.8,37.5,19.2,37.9,18.8"/>
	</g>
	<g>
		<defs>
			<rect id="SVGID_00000175287159954342862090000011960294453121692302_" x="-14.5" width="240.9" height="62.4"/>
		</defs>
		<clipPath id="SVGID_00000129194820855170560620000008923672550615644602_">
			<use xlink:href="#SVGID_00000175287159954342862090000011960294453121692302_"  style="overflow:visible;"/>
		</clipPath>
		<path style="clip-path:url(#SVGID_00000129194820855170560620000008923672550615644602_);fill:#040305;" d="M66.1,23.2
			c0,1.5-0.3,2.9-1,4.1s-1.6,2.1-2.7,2.8c-1.1,0.7-2.4,1-3.9,1s-2.7-0.3-3.9-1c-1.2-0.7-2.1-1.6-2.7-2.8c-0.7-1.2-1-2.5-1-4.1
			c0-1.5,0.3-2.9,1-4.1s1.6-2.1,2.7-2.8c1.2-0.7,2.4-1,3.9-1s2.7,0.3,3.9,1c1.1,0.7,2.1,1.6,2.7,2.8C65.8,20.3,66.1,21.7,66.1,23.2
			 M63.8,23.2c0-1.1-0.2-2.1-0.7-3c-0.5-0.8-1.1-1.5-1.9-2s-1.7-0.8-2.7-0.8s-1.9,0.2-2.7,0.7s-1.4,1.2-1.9,2
			c-0.5,0.9-0.7,1.8-0.7,3c0,1.1,0.2,2.1,0.7,3s1.1,1.5,1.9,2s1.7,0.7,2.7,0.7s1.9-0.2,2.7-0.7s1.4-1.2,1.9-2
			C63.5,25.3,63.8,24.3,63.8,23.2"/>
	</g>
	<g>
		<defs>
			<rect id="SVGID_00000055668039438292816610000005947320096889366416_" x="-14.5" width="240.9" height="62.4"/>
		</defs>
		<clipPath id="SVGID_00000161624445555531398710000015845866915474997911_">
			<use xlink:href="#SVGID_00000055668039438292816610000005947320096889366416_"  style="overflow:visible;"/>
		</clipPath>
		<path style="clip-path:url(#SVGID_00000161624445555531398710000015845866915474997911_);fill:#040305;" d="M68.8,28.4
			c-0.2-0.3-0.2-0.5-0.2-0.8s0.2-0.5,0.5-0.7c0.2-0.1,0.5-0.2,0.7-0.2c0.3,0,0.5,0.1,0.7,0.4c0.5,0.6,1.2,1.2,1.9,1.5
			c0.7,0.4,1.6,0.6,2.6,0.6c0.4,0,0.9-0.1,1.4-0.2s0.9-0.4,1.2-0.7c0.3-0.3,0.5-0.8,0.5-1.4c0-0.5-0.2-1-0.5-1.3s-0.8-0.6-1.3-0.8
			c-0.5-0.2-1.1-0.4-1.7-0.5c-0.6-0.2-1.3-0.4-1.9-0.6s-1.2-0.5-1.7-0.8s-0.9-0.8-1.2-1.3c-0.3-0.5-0.5-1.2-0.5-1.9
			c0-0.9,0.2-1.6,0.7-2.3c0.5-0.6,1.1-1.1,1.9-1.5s1.7-0.5,2.7-0.5c0.5,0,1.1,0.1,1.7,0.2c0.6,0.1,1.2,0.3,1.7,0.6
			c0.6,0.3,1.1,0.7,1.5,1.2c0.2,0.2,0.3,0.4,0.3,0.7c0,0.3-0.1,0.6-0.4,0.8c-0.2,0.2-0.5,0.2-0.7,0.2c-0.3,0-0.5-0.1-0.7-0.3
			c-0.4-0.5-1-0.9-1.6-1.2c-0.6-0.3-1.3-0.4-2-0.4c-0.5,0-0.9,0.1-1.3,0.2s-0.8,0.4-1.1,0.7c-0.3,0.3-0.5,0.8-0.5,1.3s0.2,1,0.5,1.3
			s0.8,0.6,1.3,0.8c0.6,0.2,1.2,0.4,1.9,0.6c0.6,0.2,1.2,0.3,1.8,0.5c0.6,0.2,1.1,0.5,1.6,0.8s0.8,0.8,1.1,1.3
			c0.3,0.5,0.4,1.2,0.4,1.9c0,0.9-0.3,1.7-0.8,2.3c-0.5,0.7-1.2,1.2-2,1.5s-1.7,0.5-2.7,0.5c-1.1,0-2.1-0.2-3.2-0.6
			C70.4,30.1,69.5,29.4,68.8,28.4"/>
	</g>
	<g>
		<defs>
			<rect id="SVGID_00000022543208033439265920000011266449575293055144_" x="-14.5" width="240.9" height="62.4"/>
		</defs>
		<clipPath id="SVGID_00000096778573941411609500000013105671027636966291_">
			<use xlink:href="#SVGID_00000022543208033439265920000011266449575293055144_"  style="overflow:visible;"/>
		</clipPath>
		<path style="clip-path:url(#SVGID_00000096778573941411609500000013105671027636966291_);fill:#040305;" d="M90.2,15.3
			c1,0,1.9,0.1,2.7,0.3c0.8,0.2,1.4,0.5,1.9,0.9s0.7,0.8,0.7,1.3c0,0.3-0.1,0.5-0.3,0.8C95,18.8,94.8,19,94.5,19
			c-0.3,0-0.5-0.1-0.6-0.2c-0.2-0.1-0.3-0.2-0.5-0.4c-0.1-0.1-0.3-0.3-0.6-0.4c-0.2-0.1-0.6-0.2-1-0.3c-0.5-0.1-0.9-0.1-1.3-0.1
			c-1.1,0-2,0.3-2.8,0.8s-1.5,1.2-1.9,2.1c-0.5,0.9-0.7,1.8-0.7,2.9s0.2,2.1,0.7,2.9c0.4,0.9,1.1,1.5,1.9,2.1
			c0.8,0.5,1.7,0.8,2.8,0.8c0.7,0,1.2-0.1,1.6-0.2s0.7-0.3,1-0.4c0.3-0.2,0.6-0.4,0.8-0.6c0.2-0.2,0.4-0.3,0.8-0.3s0.6,0.1,0.8,0.3
			c0.2,0.2,0.3,0.5,0.3,0.8c0,0.4-0.2,0.8-0.7,1.1c-0.5,0.4-1.2,0.7-2,1s-1.8,0.4-2.8,0.4c-1.5,0-2.8-0.3-3.9-1s-2-1.6-2.6-2.8
			c-0.6-1.2-0.9-2.5-0.9-4s0.3-2.8,1-4c0.6-1.2,1.5-2.1,2.7-2.8C87.4,15.6,88.8,15.3,90.2,15.3"/>
	</g>
	<g>
		<defs>
			<rect id="SVGID_00000029731239057004115860000011272055868688964751_" x="-14.5" width="240.9" height="62.4"/>
		</defs>
		<clipPath id="SVGID_00000089575491596742734620000005476431873732130709_">
			<use xlink:href="#SVGID_00000029731239057004115860000011272055868688964751_"  style="overflow:visible;"/>
		</clipPath>
		<path style="clip-path:url(#SVGID_00000089575491596742734620000005476431873732130709_);fill:#005095;" d="M12.7,16.5
			c-1.3-0.8-2.8-1.3-4.3-1.3s-3,0.4-4.3,1.3c-0.3,0.2-0.4,0.4-0.5,0.8c0,0.3,0.1,0.6,0.3,0.9l0.4,0.4c0.2,0.2,0.5,0.3,0.7,0.3
			s0.4-0.1,0.5-0.2c0.8-0.5,1.8-0.8,2.7-0.8c1,0,1.9,0.3,2.7,0.8c0.4,0.3,0.9,0.2,1.3-0.2l0.4-0.4c0.2-0.2,0.3-0.5,0.3-0.9
			C13.1,17,13,16.7,12.7,16.5"/>
	</g>
	<g>
		<defs>
			<rect id="SVGID_00000034791727465740770860000014049051766072459710_" x="-14.5" width="240.9" height="62.4"/>
		</defs>
		<clipPath id="SVGID_00000088111792549813858650000007669265406614064008_">
			<use xlink:href="#SVGID_00000034791727465740770860000014049051766072459710_"  style="overflow:visible;"/>
		</clipPath>
		<path style="clip-path:url(#SVGID_00000088111792549813858650000007669265406614064008_);fill:#EE7326;" d="M7.2,28.3
			c-2.4-0.6-4.1-2.7-4.1-5.1c0-1,0.3-1.9,0.8-2.8c0.2-0.4,0.2-0.9-0.1-1.2l-0.4-0.4c-0.2-0.2-0.5-0.3-0.8-0.3S2,18.7,1.9,18.9
			c-0.8,1.3-1.3,2.8-1.3,4.3c0,3.7,2.6,6.9,6.2,7.7c0.1,0,0.1,0,0.2,0c0.2,0,0.4-0.1,0.6-0.2C7.8,30.5,8,30.2,8,29.9v-0.6
			C7.9,28.9,7.6,28.5,7.2,28.3"/>
	</g>
	<g>
		<defs>
			<rect id="SVGID_00000165230613063392161980000003506724045253903796_" x="-14.5" width="240.9" height="62.4"/>
		</defs>
		<clipPath id="SVGID_00000167366170017814084130000010368289621023082897_">
			<use xlink:href="#SVGID_00000165230613063392161980000003506724045253903796_"  style="overflow:visible;"/>
		</clipPath>
		<path style="clip-path:url(#SVGID_00000167366170017814084130000010368289621023082897_);fill:#005095;" d="M21.6,15.3
			c-4.4,0-7.9,3.5-7.9,7.9l0,0l0,0c0,2.5-1.8,4.6-4.3,5.1c-0.3,0.1-0.6,0.4-0.6,0.7v1.2c0,0.2,0.1,0.4,0.3,0.5C9.3,31,9.5,31,9.7,31
			c3.8-0.6,6.6-3.9,6.6-7.8c0-2.9,2.4-5.3,5.3-5.3s5.3,2.4,5.3,5.3s-2.4,5.3-5.3,5.3c-0.7,0-1.3,0.6-1.3,1.3c0,0.7,0.6,1.3,1.3,1.3
			c4.4,0,7.9-3.5,7.9-7.9S25.9,15.3,21.6,15.3"/>
	</g>
</g>
<rect x="105.2" y="7.4" class="st8" width="0.3" height="31.6"/>
<g>
	<g>
		<defs>
			<rect id="SVGID_00000146482335458399380610000017223203313330364316_" x="-14.5" width="240.9" height="62.4"/>
		</defs>
		<clipPath id="SVGID_00000000213518215222722650000010751061398220097668_">
			<use xlink:href="#SVGID_00000146482335458399380610000017223203313330364316_"  style="overflow:visible;"/>
		</clipPath>
		<path style="clip-path:url(#SVGID_00000000213518215222722650000010751061398220097668_);fill:#040305;" d="M210.4,15.8h-9.9
			c-0.3,0-0.6,0.1-0.7,0.3c-0.2,0.2-0.3,0.4-0.3,0.7c0,0.3,0.1,0.5,0.3,0.7s0.4,0.3,0.7,0.3h3.8v12.1c0,0.3,0.1,0.5,0.3,0.7
			s0.5,0.3,0.8,0.3s0.6-0.1,0.8-0.3c0.2-0.2,0.3-0.4,0.3-0.7V17.8h3.8c0.3,0,0.5-0.1,0.7-0.3c0.2-0.2,0.3-0.4,0.3-0.7
			c0-0.3-0.1-0.5-0.3-0.7C211,15.9,210.7,15.8,210.4,15.8 M192.3,31.1c1,0,1.8-0.2,2.7-0.5c0.8-0.4,1.4-0.9,1.9-1.5s0.7-1.4,0.7-2.2
			c0-0.9-0.2-1.7-0.6-2.3c-0.4-0.6-0.9-1.1-1.7-1.4c-0.7-0.3-1.6-0.6-2.8-0.9c-1.1-0.3-2-0.6-2.5-0.9c-0.6-0.4-0.9-0.9-0.9-1.6
			c0-0.6,0.3-1.2,0.9-1.6c0.6-0.4,1.3-0.6,2.3-0.6c0.6,0,1.2,0.1,1.9,0.4s1.2,0.6,1.6,0.9c0.1,0.1,0.3,0.2,0.5,0.2
			c0.3,0,0.5-0.1,0.7-0.3c0.2-0.2,0.3-0.4,0.3-0.7c0-0.3-0.2-0.6-0.5-0.9c-0.5-0.5-1.1-0.9-1.9-1.1c-0.8-0.3-1.6-0.4-2.5-0.4
			c-1,0-1.9,0.2-2.7,0.5c-0.8,0.3-1.4,0.8-1.9,1.5s-0.7,1.4-0.7,2.2c0,1.2,0.4,2.2,1.2,2.9c0.8,0.7,1.9,1.2,3.4,1.5
			c1.3,0.3,2.2,0.6,2.8,1s0.9,1,0.9,1.7c0,0.6-0.3,1.2-0.9,1.6c-0.6,0.4-1.4,0.6-2.3,0.6c-0.8,0-1.5-0.1-2.1-0.4s-1.2-0.6-1.8-1.2
			c-0.2-0.2-0.4-0.2-0.6-0.2c-0.3,0-0.5,0.1-0.7,0.3c-0.2,0.2-0.3,0.4-0.3,0.7c0,0.3,0.2,0.6,0.5,0.9c0.7,0.7,1.5,1.1,2.3,1.4
			S191.2,31.1,192.3,31.1 M183,15.8c-0.3,0-0.5,0.1-0.7,0.3c-0.2,0.2-0.3,0.4-0.3,0.7v8.3c0,0.7-0.2,1.4-0.5,2
			c-0.4,0.6-0.8,1.1-1.4,1.4c-0.6,0.3-1.2,0.5-1.9,0.5s-1.3-0.2-1.9-0.5c-0.6-0.3-1-0.8-1.4-1.4c-0.3-0.6-0.5-1.3-0.5-2v-8.3
			c0-0.3-0.1-0.5-0.3-0.7c-0.2-0.2-0.4-0.3-0.7-0.3s-0.6,0.1-0.8,0.3c-0.2,0.2-0.3,0.4-0.3,0.7v8.3c0,1.1,0.3,2.2,0.8,3.1
			s1.2,1.6,2.1,2.1c0.9,0.5,1.9,0.8,3,0.8s2.1-0.3,3-0.8s1.6-1.2,2.1-2.1s0.8-1.9,0.8-3.1v-8.3c0-0.3-0.1-0.6-0.3-0.7
			C183.6,15.9,183.3,15.8,183,15.8 M164.5,23.2h-4.9v-5.4h4.9c0.6,0,1.1,0.2,1.5,0.7s0.6,1.1,0.6,1.8c0,0.5-0.1,1-0.3,1.5
			c-0.2,0.4-0.5,0.8-0.8,1C165.2,23.1,164.9,23.2,164.5,23.2 M168.9,29.2c-0.2-0.1-0.4-0.3-0.5-0.6c-0.1-0.3-0.1-0.9-0.2-1.7
			c0-0.6-0.2-1.2-0.5-1.7s-0.7-0.9-1.3-1.1c0.7-0.3,1.2-0.9,1.7-1.6c0.4-0.7,0.6-1.4,0.6-2.3c0-0.8-0.2-1.6-0.6-2.3
			c-0.4-0.7-0.9-1.2-1.6-1.6c-0.6-0.4-1.4-0.6-2.1-0.6h-5.9c-0.3,0-0.5,0.1-0.7,0.3s-0.3,0.4-0.3,0.7v13c0,0.3,0.1,0.5,0.4,0.7
			c0.2,0.2,0.5,0.3,0.9,0.3c0.3,0,0.5-0.1,0.7-0.3c0.2-0.2,0.3-0.4,0.3-0.7V25h4.4c0.7,0,1.3,0.2,1.7,0.5s0.6,0.9,0.6,1.6
			c0,1.1,0.1,1.9,0.4,2.4c0.3,0.5,0.6,0.9,1.1,1.2c0.2,0.1,0.4,0.2,0.7,0.2s0.5-0.1,0.7-0.2s0.3-0.4,0.3-0.7c0-0.2,0-0.3-0.1-0.5
			C169.2,29.4,169.1,29.3,168.9,29.2 M153.6,15.8h-9.9c-0.3,0-0.6,0.1-0.7,0.3c-0.1,0.2-0.3,0.4-0.3,0.7c0,0.3,0.1,0.5,0.3,0.7
			s0.4,0.3,0.7,0.3h3.8v12.1c0,0.3,0.1,0.5,0.3,0.7s0.5,0.3,0.8,0.3s0.6-0.1,0.8-0.3c0.2-0.2,0.3-0.4,0.3-0.7V17.8h3.8
			c0.3,0,0.6-0.1,0.7-0.3s0.3-0.4,0.3-0.7c0-0.3-0.1-0.5-0.3-0.7S153.9,15.8,153.6,15.8 M139,15.8c-0.3,0-0.5,0.1-0.7,0.3
			c-0.2,0.2-0.3,0.4-0.3,0.7v10.5l-8.5-11.1c-0.1-0.1-0.2-0.2-0.4-0.3c-0.2-0.1-0.3-0.1-0.5-0.1c-0.3,0-0.5,0.1-0.7,0.3
			c-0.2,0.2-0.3,0.4-0.3,0.7V30c0,0.3,0.1,0.5,0.3,0.7s0.4,0.3,0.7,0.3s0.5-0.1,0.7-0.3c0.2-0.2,0.3-0.4,0.3-0.7V19.6l8.5,11
			c0.1,0.1,0.2,0.2,0.4,0.2c0.2,0.1,0.3,0.1,0.5,0.1c0.3,0,0.6-0.1,0.7-0.3c0.2-0.2,0.3-0.5,0.3-0.8v-13c0-0.3-0.1-0.5-0.3-0.7
			C139.5,15.9,139.2,15.8,139,15.8 M123.6,28.9h-6.4v-4.8h5.4c0.3,0,0.6-0.1,0.7-0.3c0.2-0.2,0.3-0.4,0.3-0.7c0-0.3-0.1-0.5-0.3-0.7
			s-0.4-0.3-0.7-0.3h-5.4v-4.4h6.4c0.3,0,0.5-0.1,0.7-0.3c0.2-0.2,0.3-0.4,0.3-0.7c0-0.3-0.1-0.5-0.3-0.7s-0.4-0.3-0.7-0.3h-7.5
			c-0.3,0-0.5,0.1-0.7,0.3s-0.3,0.4-0.3,0.7v13c0,0.3,0.1,0.5,0.3,0.7s0.4,0.3,0.7,0.3h7.5c0.3,0,0.5-0.1,0.7-0.3
			c0.2-0.2,0.3-0.4,0.3-0.7c0-0.3-0.1-0.5-0.3-0.7C124.2,29,123.9,28.9,123.6,28.9"/>
	</g>
</g>
</svg>
