<?xml version="1.0" encoding="UTF-8"?>
<svg id="Layer_2" data-name="Layer 2" xmlns="http://www.w3.org/2000/svg" viewBox="0 0 697.78 203.59">
  <defs>
    <style>
      .cls-1 {
        fill: #ffce64;
      }

      .cls-2 {
        fill: #4866fa;
      }

      .cls-3 {
        fill: #282832;
      }
    </style>
  </defs>
  <g id="Layer_1-2" data-name="Layer 1">
    <g>
      <g>
        <path class="cls-3" d="M216.67,85.07h-20.29v58.85h-16.73v-58.85h-20.29v-13.27h57.32v13.27Z"/>
        <path class="cls-3" d="M283.24,143.93h-15.15c-2.81,0-4.82-1.06-6.04-3.17l-11.98-20.94c-.56-.89-1.19-1.54-1.88-1.96-.69-.41-1.68-.62-2.97-.62h-4.26v26.68h-16.73v-72.12h23.46c5.21,0,9.66.54,13.34,1.61,3.68,1.07,6.68,2.57,9.01,4.48,2.33,1.91,4.02,4.17,5.07,6.78,1.06,2.61,1.58,5.44,1.58,8.51,0,2.34-.31,4.55-.94,6.63-.63,2.08-1.55,4-2.77,5.77-1.22,1.77-2.73,3.34-4.53,4.73-1.8,1.39-3.87,2.52-6.21,3.42,1.09.56,2.11,1.26,3.07,2.1.96.84,1.81,1.84,2.57,2.99l15.34,25.1ZM247.7,105.71c2.28,0,4.21-.29,5.82-.87,1.6-.58,2.91-1.38,3.94-2.4,1.02-1.02,1.76-2.22,2.23-3.59.46-1.37.69-2.85.69-4.43,0-3.17-1.03-5.64-3.09-7.42-2.06-1.78-5.26-2.67-9.58-2.67h-6.73v21.38h6.73Z"/>
        <path class="cls-3" d="M305.27,84.68v16.83h22.67v12.37h-22.67v17.18h29.6v12.87h-46.43v-72.12h46.43v12.87h-29.6Z"/>
        <path class="cls-3" d="M390.85,92.6l-19.9,51.33h-13.96l-19.9-51.33h12.77c1.09,0,2,.26,2.75.77.74.51,1.25,1.15,1.51,1.91l7.13,23.02c.63,1.88,1.18,3.71,1.66,5.49.48,1.78.9,3.56,1.26,5.35.73-3.56,1.73-7.18,3.02-10.84l7.42-23.02c.26-.76.76-1.39,1.48-1.91.73-.51,1.58-.77,2.57-.77h12.18Z"/>
        <path class="cls-3" d="M418.61,91.8c3.89,0,7.44.61,10.64,1.83,3.2,1.22,5.95,2.97,8.24,5.25,2.29,2.28,4.08,5.04,5.35,8.29,1.27,3.25,1.91,6.9,1.91,10.96s-.64,7.78-1.91,11.06c-1.27,3.28-3.05,6.07-5.35,8.37-2.29,2.29-5.04,4.06-8.24,5.3-3.2,1.24-6.75,1.86-10.64,1.86s-7.5-.62-10.72-1.86c-3.22-1.24-5.99-3-8.32-5.3-2.33-2.29-4.13-5.08-5.4-8.37-1.27-3.28-1.91-6.97-1.91-11.06s.63-7.71,1.91-10.96c1.27-3.25,3.07-6.01,5.4-8.29,2.33-2.28,5.1-4.03,8.32-5.25,3.22-1.22,6.79-1.83,10.72-1.83ZM418.61,133.33c3.53,0,6.13-1.25,7.8-3.74,1.67-2.49,2.5-6.28,2.5-11.36s-.83-8.86-2.5-11.33c-1.67-2.48-4.27-3.71-7.8-3.71s-6.29,1.24-7.97,3.71c-1.68,2.47-2.52,6.25-2.52,11.33s.84,8.87,2.52,11.36c1.68,2.49,4.34,3.74,7.97,3.74Z"/>
        <path class="cls-3" d="M466.92,69.83v74.1h-15.34v-74.1h15.34Z"/>
        <path class="cls-3" d="M522.46,92.6v51.33h-9.5c-1.91,0-3.17-.86-3.76-2.57l-.89-2.97c-.99.96-2.01,1.82-3.07,2.6-1.06.78-2.19,1.44-3.39,1.98-1.2.54-2.51.97-3.91,1.29-1.4.31-2.93.47-4.58.47-2.81,0-5.29-.49-7.45-1.46-2.16-.97-3.98-2.33-5.47-4.08-1.48-1.75-2.61-3.81-3.37-6.19-.76-2.38-1.14-4.98-1.14-7.82v-32.57h15.34v32.57c0,2.54.58,4.5,1.73,5.89,1.15,1.39,2.85,2.08,5.1,2.08,1.68,0,3.26-.35,4.73-1.06,1.47-.71,2.9-1.67,4.28-2.9v-36.58h15.34Z"/>
        <path class="cls-3" d="M550.33,144.72c-2.44,0-4.6-.36-6.46-1.06-1.86-.71-3.43-1.71-4.7-3.02-1.27-1.3-2.24-2.88-2.9-4.73-.66-1.85-.99-3.91-.99-6.19v-26.53h-4.36c-.79,0-1.47-.25-2.03-.77-.56-.51-.84-1.26-.84-2.25v-5.99l8.17-1.58,3.02-12.52c.4-1.58,1.52-2.38,3.37-2.38h8.02v15h12.72v10.49h-12.72v25.49c0,1.19.29,2.17.87,2.94.58.78,1.41,1.16,2.5,1.16.56,0,1.03-.06,1.41-.17.38-.12.71-.25.99-.4.28-.15.54-.28.79-.4.25-.12.54-.17.87-.17.46,0,.83.11,1.11.32.28.21.57.55.87,1.01l4.65,7.28c-1.98,1.49-4.21,2.6-6.68,3.34-2.47.74-5.03,1.11-7.67,1.11Z"/>
        <path class="cls-3" d="M586.36,78.54c0,1.22-.25,2.37-.74,3.44-.49,1.07-1.17,2.01-2.03,2.82-.86.81-1.86,1.45-2.99,1.93-1.14.48-2.35.72-3.64.72s-2.43-.24-3.51-.72c-1.09-.48-2.05-1.12-2.9-1.93-.84-.81-1.5-1.75-1.98-2.82-.48-1.07-.72-2.22-.72-3.44s.24-2.43.72-3.51c.48-1.09,1.14-2.05,1.98-2.87.84-.82,1.81-1.47,2.9-1.93,1.09-.46,2.26-.69,3.51-.69s2.5.23,3.64.69c1.14.46,2.14,1.11,2.99,1.93.86.83,1.53,1.78,2.03,2.87s.74,2.26.74,3.51ZM584.78,92.6v51.33h-15.34v-51.33h15.34Z"/>
        <path class="cls-3" d="M618.28,91.8c3.89,0,7.44.61,10.64,1.83,3.2,1.22,5.95,2.97,8.24,5.25,2.29,2.28,4.08,5.04,5.35,8.29,1.27,3.25,1.91,6.9,1.91,10.96s-.64,7.78-1.91,11.06c-1.27,3.28-3.05,6.07-5.35,8.37-2.29,2.29-5.04,4.06-8.24,5.3-3.2,1.24-6.75,1.86-10.64,1.86s-7.5-.62-10.72-1.86c-3.22-1.24-5.99-3-8.32-5.3-2.33-2.29-4.13-5.08-5.4-8.37-1.27-3.28-1.91-6.97-1.91-11.06s.63-7.71,1.91-10.96c1.27-3.25,3.07-6.01,5.4-8.29,2.33-2.28,5.1-4.03,8.32-5.25,3.22-1.22,6.79-1.83,10.72-1.83ZM618.28,133.33c3.53,0,6.13-1.25,7.8-3.74,1.67-2.49,2.5-6.28,2.5-11.36s-.83-8.86-2.5-11.33c-1.67-2.48-4.27-3.71-7.8-3.71s-6.29,1.24-7.97,3.71c-1.68,2.47-2.52,6.25-2.52,11.33s.84,8.87,2.52,11.36c1.68,2.49,4.34,3.74,7.97,3.74Z"/>
        <path class="cls-3" d="M665.41,98.14c.99-.92,2.01-1.78,3.07-2.57,1.06-.79,2.19-1.46,3.39-2,1.2-.54,2.51-.97,3.91-1.29,1.4-.31,2.93-.47,4.58-.47,2.8,0,5.29.49,7.45,1.46,2.16.97,3.98,2.33,5.47,4.06,1.48,1.73,2.61,3.79,3.37,6.19.76,2.39,1.14,4.99,1.14,7.8v32.62h-15.34v-32.62c0-2.51-.58-4.46-1.73-5.87-1.16-1.4-2.85-2.1-5.1-2.1-1.68,0-3.26.36-4.73,1.06-1.47.71-2.9,1.67-4.28,2.9v36.63h-15.34v-51.33h9.5c1.91,0,3.17.86,3.76,2.57l.89,2.97Z"/>
      </g>
      <g>
        <path class="cls-3" d="M193.24,203.21h-3.6c-.42,0-.75-.1-1.01-.31-.26-.21-.45-.47-.58-.79l-3.22-8.31h-15.45l-3.22,8.31c-.1.29-.28.54-.55.77-.27.22-.61.34-1.01.34h-3.6l13.76-34.42h4.71l13.76,34.42ZM183.54,190.43l-5.4-14c-.16-.42-.33-.9-.5-1.45-.18-.55-.34-1.14-.5-1.77-.34,1.3-.68,2.38-1.03,3.24l-5.4,13.98h12.85Z"/>
        <path class="cls-3" d="M239.96,185.69c0,2.53-.44,4.86-1.31,7-.87,2.14-2.1,3.99-3.69,5.55-1.59,1.56-3.5,2.78-5.73,3.65-2.23.87-4.71,1.31-7.43,1.31h-13.6v-35h13.6c2.72,0,5.2.44,7.43,1.32,2.23.88,4.14,2.1,5.73,3.65,1.59,1.55,2.81,3.4,3.69,5.54.87,2.14,1.31,4.46,1.31,6.98ZM231.65,185.69c0-1.73-.22-3.29-.67-4.68-.45-1.39-1.09-2.57-1.93-3.54-.84-.97-1.87-1.71-3.09-2.23-1.22-.52-2.6-.78-4.16-.78h-5.43v22.51h5.43c1.55,0,2.94-.26,4.16-.78,1.22-.52,2.25-1.26,3.09-2.23.84-.97,1.49-2.15,1.93-3.54.45-1.39.67-2.96.67-4.71Z"/>
        <path class="cls-3" d="M275.73,203.21h-6.29c-.7,0-1.27-.16-1.71-.49s-.76-.75-.98-1.26l-2.07-6.1h-13.31l-2.07,6.1c-.18.45-.49.85-.95,1.21-.46.36-1.02.54-1.69.54h-6.34l13.55-35h8.31l13.55,35ZM262.83,189.83l-3.24-9.58c-.24-.61-.5-1.33-.77-2.15-.27-.83-.54-1.72-.82-2.68-.24.98-.5,1.88-.77,2.71-.27.83-.53,1.55-.77,2.16l-3.22,9.54h9.58Z"/>
        <path class="cls-3" d="M306.69,203.21h-7.35c-1.36,0-2.34-.51-2.93-1.54l-5.81-10.16c-.27-.43-.58-.75-.91-.95-.34-.2-.82-.3-1.44-.3h-2.07v12.95h-8.12v-35h11.39c2.53,0,4.69.26,6.47.78,1.79.52,3.24,1.25,4.37,2.17s1.95,2.03,2.46,3.29c.51,1.27.77,2.64.77,4.13,0,1.14-.15,2.21-.46,3.22-.3,1.01-.75,1.94-1.35,2.8-.59.86-1.33,1.62-2.2,2.29-.87.67-1.88,1.22-3.01,1.66.53.27,1.02.61,1.49,1.02.46.41.88.89,1.25,1.45l7.45,12.18ZM289.45,184.66c1.1,0,2.05-.14,2.82-.42.78-.28,1.41-.67,1.91-1.17.5-.5.86-1.08,1.08-1.74.22-.66.34-1.38.34-2.15,0-1.54-.5-2.74-1.5-3.6-1-.86-2.55-1.3-4.65-1.3h-3.27v10.38h3.27Z"/>
        <path class="cls-3" d="M317.38,174.45v8.17h11v6.01h-11v8.33h14.36v6.25h-22.53v-35h22.53v6.25h-14.36Z"/>
        <path class="cls-3" d="M361.58,196.79c1.09,0,2.06-.18,2.92-.54.86-.36,1.58-.88,2.17-1.55.59-.67,1.04-1.49,1.36-2.46s.47-2.07.47-3.3v-20.73h8.12v20.73c0,2.15-.35,4.12-1.04,5.91s-1.69,3.34-2.99,4.64c-1.3,1.3-2.87,2.31-4.73,3.03-1.86.72-3.95,1.08-6.27,1.08s-4.44-.36-6.29-1.08c-1.86-.72-3.44-1.73-4.73-3.03-1.3-1.3-2.29-2.84-2.98-4.64-.69-1.79-1.03-3.76-1.03-5.91v-20.73h8.12v20.71c0,1.23.16,2.33.47,3.3.31.97.76,1.79,1.36,2.47.59.68,1.32,1.2,2.17,1.56.86.36,1.83.54,2.92.54Z"/>
        <path class="cls-3" d="M390.65,182.38h1.3c1.2,0,2.07-.38,2.59-1.13l7.88-11.43c.46-.61.96-1.03,1.5-1.26.54-.23,1.2-.35,2.01-.35h7.06l-10.38,14.15c-.74.98-1.53,1.68-2.38,2.11.61.22,1.16.54,1.66.94.5.4.96.92,1.39,1.56l10.57,16.24h-7.25c-.46,0-.86-.03-1.19-.1-.33-.06-.61-.16-.85-.29-.24-.13-.45-.28-.62-.47-.18-.18-.34-.4-.5-.64l-7.93-12.18c-.29-.45-.65-.76-1.09-.95-.44-.18-1.04-.28-1.79-.28h-1.97v14.89h-8.12v-35h8.12v14.17Z"/>
        <path class="cls-3" d="M439.07,168.78c2.18,0,4.07.25,5.68.76,1.61.5,2.94,1.22,4,2.15,1.06.93,1.85,2.05,2.37,3.36.52,1.31.78,2.78.78,4.4s-.28,3.07-.84,4.4c-.56,1.33-1.38,2.47-2.46,3.43-1.08.96-2.42,1.71-4.01,2.25-1.59.54-3.43.8-5.51.8h-5.53v12.88h-4.64v-34.42h10.16ZM439.07,186.63c1.33,0,2.5-.18,3.52-.53,1.02-.35,1.87-.84,2.57-1.48.7-.63,1.22-1.39,1.57-2.27.35-.88.53-1.85.53-2.91,0-2.19-.68-3.91-2.03-5.14-1.35-1.23-3.41-1.85-6.16-1.85h-5.53v14.17h5.53Z"/>
        <path class="cls-3" d="M482.77,203.21h-4.13c-.85,0-1.47-.33-1.87-.99l-8.94-12.3c-.27-.38-.56-.66-.88-.83-.31-.17-.8-.25-1.45-.25h-3.53v14.37h-4.64v-34.42h9.73c2.18,0,4.06.22,5.65.66,1.59.44,2.89,1.08,3.93,1.91,1.03.83,1.8,1.84,2.29,3.01.5,1.18.74,2.49.74,3.95,0,1.22-.19,2.35-.58,3.41-.38,1.06-.94,2.01-1.67,2.85-.73.84-1.62,1.56-2.67,2.15-1.05.59-2.24,1.04-3.57,1.34.59.34,1.1.83,1.54,1.47l10.04,13.67ZM466.87,185.45c1.35,0,2.53-.16,3.57-.49,1.03-.33,1.9-.79,2.59-1.39s1.22-1.32,1.57-2.15c.35-.83.53-1.75.53-2.76,0-2.05-.67-3.6-2.02-4.64s-3.36-1.56-6.05-1.56h-5.09v13h4.9Z"/>
        <path class="cls-3" d="M518.8,186.01c0,2.58-.41,4.94-1.23,7.1-.82,2.15-1.97,4.01-3.46,5.56-1.49,1.55-3.28,2.76-5.37,3.62-2.09.86-4.4,1.29-6.93,1.29s-4.84-.43-6.92-1.29c-2.08-.86-3.87-2.06-5.36-3.62-1.49-1.55-2.64-3.41-3.46-5.56-.82-2.15-1.23-4.52-1.23-7.1s.41-4.94,1.23-7.1c.82-2.15,1.97-4.01,3.46-5.57,1.49-1.56,3.27-2.77,5.36-3.64,2.08-.87,4.39-1.3,6.92-1.3s4.84.43,6.93,1.3c2.09.86,3.88,2.08,5.37,3.64,1.49,1.56,2.64,3.42,3.46,5.57.82,2.15,1.23,4.52,1.23,7.1ZM514.02,186.01c0-2.11-.29-4.01-.86-5.69s-1.39-3.1-2.45-4.26c-1.06-1.16-2.34-2.05-3.84-2.68-1.51-.62-3.19-.94-5.04-.94s-3.52.31-5.02.94c-1.51.62-2.79,1.52-3.86,2.68-1.07,1.16-1.89,2.58-2.46,4.26s-.86,3.58-.86,5.69.29,4.01.86,5.68c.58,1.67,1.4,3.09,2.46,4.25,1.06,1.16,2.35,2.05,3.86,2.67,1.51.62,3.18.92,5.02.92s3.54-.31,5.04-.92c1.51-.62,2.79-1.5,3.84-2.67,1.06-1.16,1.87-2.58,2.45-4.25.58-1.67.86-3.57.86-5.68Z"/>
        <path class="cls-3" d="M536.89,191.32c0,1.92-.24,3.64-.71,5.17-.47,1.52-1.17,2.81-2.09,3.86-.92,1.05-2.05,1.85-3.4,2.41-1.35.56-2.89.84-4.64.84-1.59,0-3.2-.22-4.85-.67.03-.46.07-.92.12-1.38.05-.46.09-.91.12-1.36.03-.27.13-.49.3-.66.17-.17.43-.25.78-.25.29,0,.67.07,1.14.22.47.14,1.11.22,1.91.22,1.06,0,2-.16,2.83-.48.83-.32,1.53-.82,2.09-1.49.56-.67.99-1.53,1.29-2.58.3-1.05.44-2.29.44-3.74v-22.63h4.66v22.53Z"/>
        <path class="cls-3" d="M566.12,199.41l-.02,3.8h-21.21v-34.42h21.21v3.79h-16.55v11.43h13.4v3.65h-13.4v11.75h16.57Z"/>
        <path class="cls-3" d="M596.36,196.1c.26,0,.48.1.67.31l1.85,1.99c-1.41,1.63-3.12,2.91-5.13,3.82-2.01.91-4.44,1.37-7.29,1.37-2.47,0-4.71-.43-6.73-1.29-2.02-.86-3.74-2.06-5.16-3.6-1.43-1.55-2.53-3.4-3.31-5.56-.78-2.16-1.18-4.54-1.18-7.13s.41-4.97,1.23-7.13c.82-2.16,1.97-4.02,3.45-5.57,1.48-1.55,3.25-2.76,5.32-3.62,2.07-.86,4.35-1.29,6.85-1.29s4.61.39,6.49,1.18c1.87.78,3.52,1.85,4.95,3.19l-1.54,2.14c-.1.16-.22.29-.37.4-.15.1-.36.16-.61.16-.29,0-.64-.16-1.06-.47-.42-.31-.96-.66-1.63-1.04-.67-.38-1.51-.73-2.52-1.04-1.01-.31-2.25-.47-3.72-.47-1.78,0-3.4.31-4.88.92-1.47.62-2.74,1.51-3.81,2.68-1.07,1.17-1.89,2.59-2.49,4.28-.59,1.68-.89,3.58-.89,5.69s.31,4.06.92,5.74c.62,1.68,1.46,3.1,2.52,4.26,1.06,1.16,2.32,2.05,3.77,2.65,1.45.61,3.01.91,4.7.91,1.02,0,1.95-.06,2.77-.18.82-.12,1.59-.31,2.28-.56.7-.26,1.35-.58,1.95-.97.6-.39,1.2-.86,1.79-1.41.27-.24.54-.36.82-.36Z"/>
        <path class="cls-3" d="M627.14,172.7h-11.15v30.51h-4.64v-30.51h-11.17v-3.92h26.95v3.92Z"/>
      </g>
      <g>
        <rect class="cls-1" y="183.77" width="36.69" height="19.56" rx="1" ry="1"/>
        <rect class="cls-2" y="71.72" width="36.69" height="103.18" rx="1" ry="1"/>
        <rect class="cls-2" x="45.56" y="71.72" width="41.12" height="64.56" rx="1" ry="1"/>
        <rect class="cls-1" x="45.56" y="145.15" width="41.12" height="58.18" rx="1" ry="1"/>
        <rect class="cls-1" x="95.56" y="71.72" width="36.69" height="131.62" rx="1" ry="1"/>
        <path class="cls-2" d="M115.29,62.84h-18.94c-.55,0-1-.45-1-1v-11c0-15.93-12.47-29.41-28.39-29.88-16.54-.49-30.16,12.82-30.16,29.26v11.63c0,.55-.45,1-1,1h-18.94c-.55,0-1-.45-1-1v-10.78c0-27.5,21.75-50.53,49.24-51.05s51.18,22.19,51.18,50.2v11.63c0,.55-.45,1-1,1Z"/>
      </g>
    </g>
  </g>
</svg>