<svg width="187" height="81" viewBox="0 0 187 81" fill="none" xmlns="http://www.w3.org/2000/svg">
<path fill-rule="evenodd" clip-rule="evenodd" d="M76.7403 6.89414C75.6089 8.02864 73.7751 8.02864 72.6445 6.89414C71.513 5.76044 71.513 3.92161 72.6445 2.78712C73.7751 1.65263 75.6089 1.65263 76.7403 2.78712C77.8709 3.92161 77.8709 5.76044 76.7403 6.89414Z" fill="#44AB08"/>
<path fill-rule="evenodd" clip-rule="evenodd" d="M71.0416 12.1521C70.036 13.1605 68.4067 13.1605 67.4011 12.1521C66.3956 11.1437 66.3956 9.5097 67.4011 8.50131C68.4067 7.49291 70.036 7.49291 71.0416 8.50131C72.0471 9.5097 72.0471 11.1437 71.0416 12.1521Z" fill="#44AB08"/>
<path fill-rule="evenodd" clip-rule="evenodd" d="M65.3435 17.4104C64.4643 18.2921 63.0374 18.2921 62.1583 17.4104C61.2783 16.5278 61.2783 15.0975 62.1583 14.2157C63.0374 13.3331 64.4643 13.3331 65.3435 14.2157C66.2235 15.0975 66.2235 16.5278 65.3435 17.4104Z" fill="#44AB08"/>
<path fill-rule="evenodd" clip-rule="evenodd" d="M59.6926 22.3928C59.0019 23.0855 57.8809 23.0855 57.1894 22.3928C56.4987 21.7 56.4987 20.5757 57.1894 19.8821C57.8809 19.1894 59.0019 19.1894 59.6926 19.8821C60.3841 20.5757 60.3841 21.7 59.6926 22.3928Z" fill="#44AB08"/>
<path fill-rule="evenodd" clip-rule="evenodd" d="M54.269 27.6029C53.6404 28.2333 52.6219 28.2333 51.9933 27.6029C51.3655 26.9725 51.3655 25.952 51.9933 25.3208C52.6219 24.6912 53.6404 24.6912 54.269 25.3208C54.8976 25.952 54.8976 26.9725 54.269 27.6029Z" fill="#44AB08"/>
<path fill-rule="evenodd" clip-rule="evenodd" d="M48.2963 32.2626C47.8563 32.704 47.1438 32.704 46.7038 32.2626C46.2638 31.822 46.2638 31.1065 46.7038 30.6651C47.1438 30.2245 47.8563 30.2245 48.2963 30.6651C48.7364 31.1065 48.7364 31.822 48.2963 32.2626Z" fill="#44AB08"/>
<path fill-rule="evenodd" clip-rule="evenodd" d="M76.7403 23.0301C75.6089 24.1639 73.7751 24.1639 72.6445 23.0301C71.513 21.8963 71.513 20.0573 72.6445 18.9227C73.7751 17.7881 75.6089 17.7881 76.7403 18.9227C77.8709 20.0573 77.8709 21.8963 76.7403 23.0301Z" fill="#44AB08"/>
<path fill-rule="evenodd" clip-rule="evenodd" d="M71.0416 28.2874C70.036 29.296 68.4067 29.296 67.4011 28.2874C66.3956 27.2789 66.3956 25.6446 67.4011 24.6369C68.4067 23.6283 70.036 23.6283 71.0416 24.6369C72.0471 25.6446 72.0471 27.2789 71.0416 28.2874Z" fill="#44AB08"/>
<path fill-rule="evenodd" clip-rule="evenodd" d="M65.3435 33.2226C64.4643 34.1051 63.0374 34.1051 62.1583 33.2226C61.2783 32.341 61.2783 30.91 62.1583 30.0284C63.0374 29.1459 64.4643 29.1459 65.3435 30.0284C66.2235 30.91 66.2235 32.341 65.3435 33.2226Z" fill="#44AB08"/>
<path fill-rule="evenodd" clip-rule="evenodd" d="M59.6926 38.5282C59.0019 39.221 57.8809 39.221 57.1894 38.5282C56.4987 37.8347 56.4987 36.7104 57.1894 36.0176C57.8809 35.3248 59.0019 35.3248 59.6926 36.0176C60.3841 36.7104 60.3841 37.8347 59.6926 38.5282Z" fill="#44AB08"/>
<path fill-rule="evenodd" clip-rule="evenodd" d="M54.269 43.7384C53.6404 44.3687 52.6219 44.3687 51.9933 43.7384C51.3655 43.108 51.3655 42.0866 51.9933 41.4562C52.6219 40.8267 53.6404 40.8267 54.269 41.4562C54.8976 42.0866 54.8976 43.108 54.269 43.7384Z" fill="#44AB08"/>
<path fill-rule="evenodd" clip-rule="evenodd" d="M48.2963 48.398C47.8563 48.8394 47.1438 48.8394 46.7038 48.398C46.2638 47.9566 46.2638 47.242 46.7038 46.8006C47.1438 46.36 47.8563 46.36 48.2963 46.8006C48.7364 47.242 48.7364 47.9566 48.2963 48.398Z" fill="#44AB08"/>
<path fill-rule="evenodd" clip-rule="evenodd" d="M76.7403 37.8742C75.6089 39.0087 73.7751 39.0087 72.6445 37.8742C71.513 36.7405 71.513 34.9017 72.6445 33.7672C73.7751 32.6327 75.6089 32.6327 76.7403 33.7672C77.8709 34.9017 77.8709 36.7405 76.7403 37.8742Z" fill="#44AB08"/>
<path fill-rule="evenodd" clip-rule="evenodd" d="M71.0416 43.132C70.036 44.1406 68.4067 44.1406 67.4011 43.132C66.3956 42.1235 66.3956 40.4893 67.4011 39.4815C68.4067 38.473 70.036 38.473 71.0416 39.4815C72.0471 40.4893 72.0471 42.1235 71.0416 43.132Z" fill="#44AB08"/>
<path fill-rule="evenodd" clip-rule="evenodd" d="M65.3435 48.0678C64.4643 48.9495 63.0374 48.9495 62.1583 48.0678C61.2783 47.1852 61.2783 45.7548 62.1583 44.8731C63.0374 43.9905 64.4643 43.9905 65.3435 44.8731C66.2235 45.7548 66.2235 47.1852 65.3435 48.0678Z" fill="#44AB08"/>
<path fill-rule="evenodd" clip-rule="evenodd" d="M59.6926 53.3728C59.0019 54.0656 57.8809 54.0656 57.1894 53.3728C56.4987 52.6793 56.4987 51.5558 57.1894 50.8622C57.8809 50.1694 59.0019 50.1694 59.6926 50.8622C60.3841 51.5558 60.3841 52.6793 59.6926 53.3728Z" fill="#44AB08"/>
<path fill-rule="evenodd" clip-rule="evenodd" d="M54.269 58.2603C53.6404 58.8907 52.6219 58.8907 51.9933 58.2603C51.3655 57.6299 51.3655 56.6085 51.9933 55.9781C52.6219 55.3486 53.6404 55.3486 54.269 55.9781C54.8976 56.6085 54.8976 57.6299 54.269 58.2603Z" fill="#44AB08"/>
<path fill-rule="evenodd" clip-rule="evenodd" d="M48.2963 63.5654C47.8563 64.0068 47.1438 64.0068 46.7038 63.5654C46.2638 63.124 46.2638 62.4093 46.7038 61.9679C47.1438 61.5273 47.8563 61.5273 48.2963 61.9679C48.7364 62.4093 48.7364 63.124 48.2963 63.5654Z" fill="#44AB08"/>
<path fill-rule="evenodd" clip-rule="evenodd" d="M60.3285 6.89414C59.197 8.02864 57.3632 8.02864 56.2326 6.89414C55.1012 5.76044 55.1012 3.92161 56.2326 2.78712C57.3632 1.65263 59.197 1.65263 60.3285 2.78712C61.4591 3.92161 61.4591 5.76044 60.3285 6.89414Z" fill="#44AB08"/>
<path fill-rule="evenodd" clip-rule="evenodd" d="M54.3081 12.1521C53.3024 13.1605 51.6728 13.1605 50.6679 12.1521C49.6621 11.1437 49.6621 9.5097 50.6679 8.50131C51.6728 7.49291 53.3024 7.49291 54.3081 8.50131C55.3138 9.5097 55.3138 11.1437 54.3081 12.1521Z" fill="#44AB08"/>
<path fill-rule="evenodd" clip-rule="evenodd" d="M48.9316 17.4104C48.0517 18.2921 46.6256 18.2921 45.7464 17.4104C44.8664 16.5278 44.8664 15.0975 45.7464 14.2157C46.6256 13.3331 48.0517 13.3331 48.9316 14.2157C49.8116 15.0975 49.8116 16.5278 48.9316 17.4104Z" fill="#44AB08"/>
<path fill-rule="evenodd" clip-rule="evenodd" d="M43.2812 22.3928C42.5903 23.0855 41.4692 23.0855 40.7776 22.3928C40.0868 21.7 40.0868 20.5757 40.7776 19.8821C41.4692 19.1894 42.5903 19.1894 43.2812 19.8821C43.972 20.5757 43.972 21.7 43.2812 22.3928Z" fill="#44AB08"/>
<path fill-rule="evenodd" clip-rule="evenodd" d="M37.8574 27.6029C37.2288 28.2333 36.2103 28.2333 35.5817 27.6029C34.9539 26.9725 34.9539 25.952 35.5817 25.3208C36.2103 24.6912 37.2288 24.6912 37.8574 25.3208C38.486 25.952 38.486 26.9725 37.8574 27.6029Z" fill="#44AB08"/>
<path fill-rule="evenodd" clip-rule="evenodd" d="M31.885 32.2626C31.4448 32.704 30.7322 32.704 30.292 32.2626C29.8519 31.822 29.8519 31.1065 30.292 30.6651C30.7322 30.2245 31.4448 30.2245 31.885 30.6651C32.3244 31.1065 32.3244 31.822 31.885 32.2626Z" fill="#44AB08"/>
<path fill-rule="evenodd" clip-rule="evenodd" d="M45.5252 6.89414C44.3947 8.02864 42.5611 8.02864 41.4298 6.89414C40.2985 5.76044 40.2985 3.92161 41.4298 2.78712C42.5611 1.65263 44.3947 1.65263 45.5252 2.78712C46.6565 3.92161 46.6565 5.76044 45.5252 6.89414Z" fill="#44AB08"/>
<path fill-rule="evenodd" clip-rule="evenodd" d="M39.8272 12.1521C38.8217 13.1605 37.1923 13.1605 36.1868 12.1521C35.1812 11.1437 35.1812 9.5097 36.1868 8.50131C37.1923 7.49291 38.8217 7.49291 39.8272 8.50131C40.8328 9.5097 40.8328 11.1437 39.8272 12.1521Z" fill="#44AB08"/>
<path fill-rule="evenodd" clip-rule="evenodd" d="M34.4507 17.4104C33.5707 18.2921 32.1446 18.2921 31.2654 17.4104C30.3855 16.5278 30.3855 15.0975 31.2654 14.2157C32.1446 13.3331 33.5707 13.3331 34.4507 14.2157C35.3306 15.0975 35.3306 16.5278 34.4507 17.4104Z" fill="#44AB08"/>
<path fill-rule="evenodd" clip-rule="evenodd" d="M28.4785 22.3928C27.7869 23.0855 26.6658 23.0855 25.9749 22.3928C25.2841 21.7 25.2841 20.5757 25.9749 19.8821C26.6658 19.1894 27.7869 19.1894 28.4785 19.8821C29.1693 20.5757 29.1693 21.7 28.4785 22.3928Z" fill="#44AB08"/>
<path fill-rule="evenodd" clip-rule="evenodd" d="M23.0544 27.6029C22.4258 28.2333 21.4073 28.2333 20.7787 27.6029C20.1509 26.9725 20.1509 25.952 20.7787 25.3208C21.4073 24.6912 22.4258 24.6912 23.0544 25.3208C23.683 25.952 23.683 26.9725 23.0544 27.6029Z" fill="#44AB08"/>
<path fill-rule="evenodd" clip-rule="evenodd" d="M17.4034 32.2626C16.9633 32.704 16.2506 32.704 15.8105 32.2626C15.3711 31.822 15.3711 31.1065 15.8105 30.6651C16.2506 30.2245 16.9633 30.2245 17.4034 30.6651C17.8436 31.1065 17.8436 31.822 17.4034 32.2626Z" fill="#44AB08"/>
<path fill-rule="evenodd" clip-rule="evenodd" d="M30.7225 6.89414C29.592 8.02864 27.7583 8.02864 26.627 6.89414C25.4957 5.76044 25.4957 3.92161 26.627 2.78712C27.7583 1.65263 29.592 1.65263 30.7225 2.78712C31.8538 3.92161 31.8538 5.76044 30.7225 6.89414Z" fill="#44AB08"/>
<path fill-rule="evenodd" clip-rule="evenodd" d="M25.0245 12.1521C24.019 13.1605 22.3896 13.1605 21.384 12.1521C20.3785 11.1437 20.3785 9.5097 21.384 8.50131C22.3896 7.49291 24.019 7.49291 25.0245 8.50131C26.0301 9.5097 26.0301 11.1437 25.0245 12.1521Z" fill="#44AB08"/>
<path fill-rule="evenodd" clip-rule="evenodd" d="M19.648 17.4104C18.768 18.2921 17.3419 18.2921 16.4627 17.4104C15.5827 16.5278 15.5827 15.0975 16.4627 14.2157C17.3419 13.3331 18.768 13.3331 19.648 14.2157C20.5279 15.0975 20.5279 16.5278 19.648 17.4104Z" fill="#44AB08"/>
<path fill-rule="evenodd" clip-rule="evenodd" d="M13.6757 22.3928C12.9841 23.0855 11.8638 23.0855 11.1722 22.3928C10.4813 21.7 10.4813 20.5757 11.1722 19.8821C11.8638 19.1894 12.9841 19.1894 13.6757 19.8821C14.3666 20.5757 14.3666 21.7 13.6757 22.3928Z" fill="#44AB08"/>
<path fill-rule="evenodd" clip-rule="evenodd" d="M8.57345 27.6029C7.94485 28.2333 6.92632 28.2333 6.29772 27.6029C5.66996 26.9725 5.66996 25.952 6.29772 25.3208C6.92632 24.6912 7.94485 24.6912 8.57345 25.3208C9.20205 25.952 9.20205 26.9725 8.57345 27.6029Z" fill="#44AB08"/>
<path fill-rule="evenodd" clip-rule="evenodd" d="M2.60071 32.2626C2.16133 32.704 1.44791 32.704 1.00776 32.2626C0.568377 31.822 0.568377 31.1065 1.00776 30.6651C1.44791 30.2245 2.16133 30.2245 2.60071 30.6651C3.04085 31.1065 3.04085 31.822 2.60071 32.2626Z" fill="#44AB08"/>
<path fill-rule="evenodd" clip-rule="evenodd" d="M76.7403 53.3643C75.6089 54.4988 73.7751 54.4988 72.6445 53.3643C71.513 52.2306 71.513 50.3917 72.6445 49.2572C73.7751 48.1227 75.6089 48.1227 76.7403 49.2572C77.8709 50.3917 77.8709 52.2306 76.7403 53.3643Z" fill="#44AB08"/>
<path fill-rule="evenodd" clip-rule="evenodd" d="M71.0416 58.2994C70.036 59.3079 68.4067 59.3079 67.4011 58.2994C66.3956 57.2908 66.3956 55.6566 67.4011 54.6488C68.4067 53.6403 70.036 53.6403 71.0416 54.6488C72.0471 55.6566 72.0471 57.2908 71.0416 58.2994Z" fill="#44AB08"/>
<path fill-rule="evenodd" clip-rule="evenodd" d="M65.3435 63.5578C64.4643 64.4396 63.0374 64.4396 62.1583 63.5578C61.2783 62.6752 61.2783 61.2449 62.1583 60.3631C63.0374 59.4805 64.4643 59.4805 65.3435 60.3631C66.2235 61.2449 66.2235 62.6752 65.3435 63.5578Z" fill="#44AB08"/>
<path fill-rule="evenodd" clip-rule="evenodd" d="M59.6926 68.5402C59.0019 69.233 57.8809 69.233 57.1894 68.5402C56.4987 67.8466 56.4987 66.7223 57.1894 66.0295C57.8809 65.3368 59.0019 65.3368 59.6926 66.0295C60.3841 66.7223 60.3841 67.8466 59.6926 68.5402Z" fill="#44AB08"/>
<path fill-rule="evenodd" clip-rule="evenodd" d="M54.269 74.073C53.6404 74.7034 52.6219 74.7034 51.9933 74.073C51.3655 73.4427 51.3655 72.4212 51.9933 71.7909C52.6219 71.1613 53.6404 71.1613 54.269 71.7909C54.8976 72.4212 54.8976 73.4427 54.269 74.073Z" fill="#44AB08"/>
<path fill-rule="evenodd" clip-rule="evenodd" d="M48.2963 78.7327C47.8563 79.1741 47.1438 79.1741 46.7038 78.7327C46.2638 78.2913 46.2638 77.5766 46.7038 77.1352C47.1438 76.6946 47.8563 76.6946 48.2963 77.1352C48.7364 77.5766 48.7364 78.2913 48.2963 78.7327Z" fill="#44AB08"/>
<path d="M91.3229 17H94.8929V11.036H97.5389C99.2609 11.036 100.038 11.834 100.227 13.388C100.416 15.11 100.374 16.769 100.794 17H104.322V16.832C103.818 16.622 103.944 14.858 103.65 12.737C103.44 11.057 102.747 10.196 101.193 9.71301V9.65001C103.188 8.99901 104.091 7.67601 104.091 5.84901C104.091 2.99301 101.802 1.37601 98.7569 1.37601H91.3229V17ZM94.8929 4.21101H98.1689C99.7439 4.21101 100.521 5.05101 100.521 6.33201C100.521 7.57101 99.6599 8.39001 98.0639 8.39001H94.8929V4.21101Z" fill="#44AB08"/>
<path d="M111.377 17.336C114.254 17.336 116.081 15.824 116.648 13.85H113.456C113.099 14.543 112.448 14.942 111.419 14.942C109.823 14.942 108.92 13.934 108.71 12.254H116.858C116.879 10.049 116.312 8.15901 115.052 6.94101C114.065 6.03801 112.805 5.51301 111.209 5.51301C107.807 5.51301 105.476 8.07501 105.476 11.435C105.476 14.774 107.723 17.336 111.377 17.336ZM111.209 7.84401C112.511 7.84401 113.393 8.78901 113.498 10.343H108.731C108.941 8.81001 109.697 7.84401 111.209 7.84401Z" fill="#44AB08"/>
<path d="M123.152 17.357C126.05 17.357 128.192 16.097 128.192 13.682C128.192 10.868 125.924 10.343 123.929 9.98601C122.396 9.71301 121.178 9.58701 121.178 8.74701C121.178 8.03301 121.829 7.61301 122.837 7.61301C123.887 7.61301 124.517 8.01201 124.727 8.81001H127.793C127.499 6.85701 125.945 5.51301 122.837 5.51301C120.212 5.51301 118.133 6.71001 118.133 8.99901C118.133 11.603 120.149 12.107 122.144 12.485C123.698 12.779 125.021 12.905 125.021 13.913C125.021 14.711 124.349 15.194 123.173 15.194C121.892 15.194 121.094 14.606 120.905 13.556H117.797C117.965 15.803 119.918 17.357 123.152 17.357Z" fill="#44AB08"/>
<path d="M135.207 17.336C138.084 17.336 139.911 15.824 140.478 13.85H137.286C136.929 14.543 136.278 14.942 135.249 14.942C133.653 14.942 132.75 13.934 132.54 12.254H140.688C140.709 10.049 140.142 8.15901 138.882 6.94101C137.895 6.03801 136.635 5.51301 135.039 5.51301C131.637 5.51301 129.306 8.07501 129.306 11.435C129.306 14.774 131.553 17.336 135.207 17.336ZM135.039 7.84401C136.341 7.84401 137.223 8.78901 137.328 10.343H132.561C132.771 8.81001 133.527 7.84401 135.039 7.84401Z" fill="#44AB08"/>
<path d="M149.502 17H152.715V16.811C152.421 16.622 152.295 16.139 152.295 15.257V9.52401C152.295 8.01201 151.749 6.85701 150.594 6.18501C149.817 5.72301 148.809 5.51301 147.381 5.51301C144.063 5.51301 142.509 7.29801 142.425 9.20901H145.47C145.554 8.32701 146.163 7.73901 147.423 7.73901C148.557 7.73901 149.082 8.28501 149.082 9.08301C149.082 9.92301 148.263 10.238 146.268 10.511C143.832 10.805 141.879 11.435 141.879 13.913C141.879 16.118 143.496 17.294 145.701 17.294C147.423 17.294 148.347 16.664 149.082 15.635H149.124C149.187 16.265 149.334 16.748 149.502 17ZM146.73 15.131C145.827 15.131 145.092 14.774 145.092 13.808C145.092 12.842 145.785 12.485 147.234 12.17C147.969 12.002 148.683 11.834 149.166 11.54V12.989C149.166 14.207 148.2 15.131 146.73 15.131Z" fill="#44AB08"/>
<path d="M157.694 5.82801H154.523V17H157.82V11.813C157.82 9.62901 158.996 8.51601 160.781 8.53701C161.012 8.53701 161.243 8.55801 161.474 8.60001H161.558V5.72301C161.411 5.66001 161.18 5.63901 160.865 5.63901C159.479 5.63901 158.471 6.26901 157.757 7.82301H157.694V5.82801Z" fill="#44AB08"/>
<path d="M168.286 17.357C171.394 17.357 173.41 15.383 173.515 12.842H170.344C170.197 14.123 169.462 14.858 168.244 14.858C166.585 14.858 165.745 13.472 165.745 11.435C165.745 9.33501 166.585 7.97001 168.244 7.97001C169.336 7.97001 170.008 8.62101 170.239 9.65001H173.431C173.032 7.21401 171.184 5.51301 168.202 5.51301C164.695 5.51301 162.406 8.07501 162.406 11.435C162.406 14.774 164.716 17.357 168.286 17.357Z" fill="#44AB08"/>
<path d="M178.348 5.68101V1.37601H175.051V17H178.348V10.7C178.348 9.27201 179.209 8.24301 180.49 8.24301C181.708 8.24301 182.359 9.06201 182.359 10.28V17H185.635V9.65001C185.635 7.15101 184.207 5.51301 181.75 5.51301C180.196 5.51301 179.062 6.22701 178.39 7.42401H178.327C178.348 6.68901 178.348 5.78601 178.348 5.68101Z" fill="#44AB08"/>
<path d="M91.3649 40H97.6649C102.453 40 105.078 36.934 105.078 32.293C105.078 27.505 102.264 24.376 97.8749 24.376H91.3649V40ZM94.9559 36.976V27.4H97.4549C100.08 27.4 101.424 29.332 101.424 32.293C101.424 35.275 100.101 36.976 97.3919 36.976H94.9559Z" fill="#44AB08"/>
<path d="M113.962 40H117.175V39.811C116.881 39.622 116.755 39.139 116.755 38.257V32.524C116.755 31.012 116.209 29.857 115.054 29.185C114.277 28.723 113.269 28.513 111.841 28.513C108.523 28.513 106.969 30.298 106.885 32.209H109.93C110.014 31.327 110.623 30.739 111.883 30.739C113.017 30.739 113.542 31.285 113.542 32.083C113.542 32.923 112.723 33.238 110.728 33.511C108.292 33.805 106.339 34.435 106.339 36.913C106.339 39.118 107.956 40.294 110.161 40.294C111.883 40.294 112.807 39.664 113.542 38.635H113.584C113.647 39.265 113.794 39.748 113.962 40ZM111.19 38.131C110.287 38.131 109.552 37.774 109.552 36.808C109.552 35.842 110.245 35.485 111.694 35.17C112.429 35.002 113.143 34.834 113.626 34.54V35.989C113.626 37.207 112.66 38.131 111.19 38.131Z" fill="#44AB08"/>
<path d="M118.229 30.928H119.909V37.186C119.909 39.454 121.316 40.126 123.395 40.126C124.277 40.126 124.949 40.021 125.306 39.958V37.501H125.138C124.928 37.522 124.592 37.543 124.382 37.543C123.605 37.543 123.143 37.312 123.143 36.472V30.928H125.327V28.828H123.143V25.258H119.909V28.828H118.229V30.928Z" fill="#44AB08"/>
<path d="M134.408 40H137.621V39.811C137.327 39.622 137.201 39.139 137.201 38.257V32.524C137.201 31.012 136.655 29.857 135.5 29.185C134.723 28.723 133.715 28.513 132.287 28.513C128.969 28.513 127.415 30.298 127.331 32.209H130.376C130.46 31.327 131.069 30.739 132.329 30.739C133.463 30.739 133.988 31.285 133.988 32.083C133.988 32.923 133.169 33.238 131.174 33.511C128.738 33.805 126.785 34.435 126.785 36.913C126.785 39.118 128.402 40.294 130.607 40.294C132.329 40.294 133.253 39.664 133.988 38.635H134.03C134.093 39.265 134.24 39.748 134.408 40ZM131.636 38.131C130.733 38.131 129.998 37.774 129.998 36.808C129.998 35.842 130.691 35.485 132.14 35.17C132.875 35.002 133.589 34.834 134.072 34.54V35.989C134.072 37.207 133.106 38.131 131.636 38.131Z" fill="#44AB08"/>
<path d="M97.4549 63.378C101.025 63.378 103.755 61.572 103.755 58.338C103.755 55.041 101.172 54.117 98.3579 53.487C95.9009 52.941 94.5569 52.668 94.5569 51.45C94.5569 50.463 95.5439 49.833 97.0139 49.833C98.5679 49.833 99.5339 50.547 99.7229 51.765H103.23C102.999 48.699 100.563 47.103 97.1189 47.103C93.6749 47.103 91.0289 48.573 91.0289 51.807C91.0289 55.062 93.5069 55.818 96.5519 56.511C98.8199 57.036 100.143 57.33 100.143 58.695C100.143 59.976 98.8409 60.522 97.4549 60.522C95.4389 60.522 94.3259 59.766 94.1369 58.065H90.5249C90.6299 61.446 93.2759 63.378 97.4549 63.378Z" fill="#44AB08"/>
<path d="M111.048 63.357C114.156 63.357 116.172 61.383 116.277 58.842H113.106C112.959 60.123 112.224 60.858 111.006 60.858C109.347 60.858 108.507 59.472 108.507 57.435C108.507 55.335 109.347 53.97 111.006 53.97C112.098 53.97 112.77 54.621 113.001 55.65H116.193C115.794 53.214 113.946 51.513 110.964 51.513C107.457 51.513 105.168 54.075 105.168 57.435C105.168 60.774 107.478 63.357 111.048 63.357Z" fill="#44AB08"/>
<path d="M123.211 63.357C126.76 63.357 129.091 60.774 129.091 57.435C129.091 54.075 126.76 51.513 123.211 51.513C119.641 51.513 117.289 54.075 117.289 57.435C117.289 60.774 119.641 63.357 123.211 63.357ZM123.19 60.963C121.51 60.963 120.628 59.535 120.628 57.435C120.628 55.314 121.51 53.865 123.19 53.865C124.828 53.865 125.752 55.314 125.752 57.435C125.752 59.535 124.828 60.963 123.19 60.963Z" fill="#44AB08"/>
<path d="M129.898 53.928H131.578V60.186C131.578 62.454 132.985 63.126 135.064 63.126C135.946 63.126 136.618 63.021 136.975 62.958V60.501H136.807C136.597 60.522 136.261 60.543 136.051 60.543C135.274 60.543 134.812 60.312 134.812 59.472V53.928H136.996V51.828H134.812V48.258H131.578V51.828H129.898V53.928Z" fill="#44AB08"/>
<path d="M138.753 63H142.071V47.376H138.753V63Z" fill="#44AB08"/>
<path d="M151.43 63H154.643V62.811C154.349 62.622 154.223 62.139 154.223 61.257V55.524C154.223 54.012 153.677 52.857 152.522 52.185C151.745 51.723 150.737 51.513 149.309 51.513C145.991 51.513 144.437 53.298 144.353 55.209H147.398C147.482 54.327 148.091 53.739 149.351 53.739C150.485 53.739 151.01 54.285 151.01 55.083C151.01 55.923 150.191 56.238 148.196 56.511C145.76 56.805 143.807 57.435 143.807 59.913C143.807 62.118 145.424 63.294 147.629 63.294C149.351 63.294 150.275 62.664 151.01 61.635H151.052C151.115 62.265 151.262 62.748 151.43 63ZM148.658 61.131C147.755 61.131 147.02 60.774 147.02 59.808C147.02 58.842 147.713 58.485 149.162 58.17C149.897 58.002 150.611 57.834 151.094 57.54V58.989C151.094 60.207 150.128 61.131 148.658 61.131Z" fill="#44AB08"/>
<path d="M159.642 51.828H156.45V63H159.747V56.7C159.747 55.272 160.608 54.243 161.889 54.243C163.107 54.243 163.758 55.062 163.758 56.28V63H167.034V55.65C167.034 53.151 165.606 51.513 163.149 51.513C161.595 51.513 160.398 52.185 159.705 53.529H159.642V51.828Z" fill="#44AB08"/>
<path d="M173.387 63.357C174.899 63.357 176.138 62.727 176.789 61.362H176.831V63H180.002V47.376H176.705V50.799C176.705 51.744 176.747 52.689 176.789 53.382H176.747C175.991 52.227 174.962 51.513 173.429 51.513C170.531 51.513 168.599 53.991 168.599 57.414C168.599 61.11 170.489 63.357 173.387 63.357ZM174.269 60.711C172.736 60.711 171.959 59.409 171.959 57.393C171.959 55.398 172.736 54.012 174.29 54.012C175.991 54.012 176.81 55.44 176.81 57.414C176.81 59.367 175.865 60.711 174.269 60.711Z" fill="#44AB08"/>
</svg>
