<?xml version="1.0"?>
<svg xmlns="http://www.w3.org/2000/svg" id="Layer_2" viewBox="0 0 399.37 100">
  <g id="Layer_1-2">
    <g id="Dare_UK_LOGO_POSITIVE_RGB">
      <path class="path" d="m173.8,50.05c0,3.36-.58,6.45-1.74,9.29-1.16,2.84-2.79,5.29-4.89,7.36-2.1,2.07-4.64,3.69-7.6,4.84-2.96,1.16-6.25,1.74-9.86,1.74h-18.03V26.86h18.03c3.61,0,6.9.58,9.86,1.75,2.96,1.17,5.5,2.78,7.6,4.84,2.1,2.06,3.73,4.51,4.89,7.34,1.16,2.84,1.74,5.92,1.74,9.25Zm-11.02,0c0-2.29-.3-4.36-.89-6.21-.59-1.85-1.45-3.41-2.56-4.7-1.12-1.28-2.48-2.27-4.09-2.96-1.61-.69-3.45-1.04-5.51-1.04h-7.2v29.85h7.2c2.06,0,3.9-.34,5.51-1.03,1.61-.69,2.98-1.68,4.09-2.96,1.11-1.29,1.97-2.85,2.56-4.7.59-1.85.89-3.93.89-6.24Z" fill="#282832"/>
      <path class="path" d="m219.37,73.28h-8.35c-.93,0-1.7-.22-2.31-.65-.6-.43-1.02-.99-1.26-1.67l-2.74-8.09h-17.65l-2.74,8.09c-.21.59-.63,1.13-1.24,1.61-.62.48-1.37.72-2.26.72h-8.41l17.97-46.42h11.02l17.97,46.42Zm-29.82-17.75h12.68l-4.27-12.71c-.28-.81-.6-1.76-.97-2.85-.37-1.09-.74-2.28-1.1-3.55-.34,1.3-.69,2.5-1.05,3.6-.36,1.1-.7,2.06-1.02,2.87l-4.27,12.65Z" fill="#282832"/>
      <path class="path" d="m232.98,56.11v17.17h-10.77V26.86h15.1c3.35,0,6.22.35,8.59,1.04,2.37.69,4.3,1.65,5.8,2.88,1.5,1.23,2.59,2.69,3.27,4.37s1.02,3.5,1.02,5.48c0,1.51-.2,2.93-.6,4.27-.4,1.34-1,2.58-1.8,3.71s-1.77,2.15-2.93,3.04c-1.16.89-2.49,1.63-4,2.2.72.36,1.4.81,2.02,1.34.63.53,1.17,1.18,1.64,1.94l9.88,16.15h-9.75c-1.81,0-3.1-.68-3.89-2.04l-7.71-13.48c-.34-.59-.74-1.02-1.19-1.27-.46-.26-1.1-.38-1.93-.38h-2.74Zm0-7.42h4.33c1.46,0,2.71-.19,3.74-.56,1.03-.37,1.88-.89,2.53-1.55.66-.66,1.14-1.43,1.43-2.31.3-.88.45-1.83.45-2.85,0-2.04-.66-3.63-1.99-4.78-1.33-1.15-3.38-1.72-6.16-1.72h-4.33v13.76Z" fill="#282832"/>
      <path class="path" d="m293.19,26.86v8.28h-19.05v10.83h14.59v7.96h-14.59v11.05h19.05v8.28h-29.88V26.86h29.88Z" fill="#282832"/>
      <path class="path" d="m330.91,64.77c1.44,0,2.73-.24,3.87-.72,1.14-.48,2.1-1.16,2.88-2.06s1.39-1.98,1.8-3.27c.41-1.28.62-2.74.62-4.38v-27.49h10.77v27.49c0,2.85-.46,5.46-1.39,7.84-.92,2.38-2.25,4.43-3.97,6.15-1.72,1.72-3.81,3.06-6.28,4.01-2.46.96-5.24,1.43-8.31,1.43s-5.88-.48-8.35-1.43c-2.46-.95-4.55-2.29-6.28-4.01-1.72-1.72-3.04-3.77-3.95-6.15-.91-2.38-1.37-4.99-1.37-7.84v-27.49h10.77v27.46c0,1.64.21,3.1.62,4.38.41,1.29,1.01,2.38,1.8,3.28s1.75,1.59,2.88,2.07c1.14.48,2.43.72,3.87.72Z" fill="#282832"/>
      <path class="path" d="m368.6,45.66h1.72c1.59,0,2.74-.5,3.44-1.5l10.45-15.16c.57-.83,1.23-1.39,1.96-1.69.73-.3,1.63-.45,2.69-.45h9.37l-13.76,18.76c-.49.68-1,1.24-1.53,1.69s-1.07.82-1.62,1.11c.81.3,1.55.71,2.21,1.23.67.52,1.28,1.22,1.83,2.09l14.02,21.54h-9.62c-.62,0-1.14-.04-1.58-.13-.44-.09-.81-.21-1.13-.38s-.59-.38-.83-.62c-.24-.24-.46-.53-.67-.84l-10.51-16.15c-.38-.59-.87-1.01-1.45-1.26s-1.37-.37-2.37-.37h-2.61v19.75h-10.77V26.86h10.77v18.8Z" fill="#282832"/>
      <rect y="52.29" width="21.57" height="47.71" rx="1" ry="1" fill="#937cff"/>
      <rect y="26.14" width="47.71" height="21.57" rx="1" ry="1" fill="#ff7a91"/>
      <path d="m52.29,100c27.61,0,50-22.39,50-50S79.9,0,52.29,0H1C.45,0,0,.45,0,1v19.57c0,.55.45,1,1,1h51.29c15.7,0,28.43,12.73,28.43,28.43s-12.73,28.43-28.43,28.43h-25.14c-.55,0-1,.45-1,1v19.57c0,.55.45,1,1,1h25.14Z" fill="#00d9ff"/>
      <path d="m52.29,27.17c0-.56.46-1.03,1.03-1,12.7.54,22.83,11,22.83,23.84s-10.13,23.3-22.83,23.84c-.56.02-1.03-.44-1.03-1V27.17Z" fill="#ffcb64"/>
    </g>
  </g>
</svg>
