<?xml version="1.0" encoding="UTF-8" standalone="no"?>
<!-- Created with Inkscape (http://www.inkscape.org/) -->

<svg
   version="1.1"
   id="svg2"
   width="166.66667"
   height="94.666664"
   viewBox="0 0 166.66667 94.666664"
   sodipodi:docname="UU-PARTNER-SPONSOR-Lockup-WHITE-01.eps"
   xmlns:inkscape="http://www.inkscape.org/namespaces/inkscape"
   xmlns:sodipodi="http://sodipodi.sourceforge.net/DTD/sodipodi-0.dtd"
   xmlns="http://www.w3.org/2000/svg"
   xmlns:svg="http://www.w3.org/2000/svg">
  <defs
     id="defs6" />
  <sodipodi:namedview
     id="namedview4"
     pagecolor="#ffffff"
     bordercolor="#666666"
     borderopacity="1.0"
     inkscape:showpageshadow="2"
     inkscape:pageopacity="0.0"
     inkscape:pagecheckerboard="0"
     inkscape:deskcolor="#d1d1d1" />
  <g
     id="g8"
     inkscape:groupmode="layer"
     inkscape:label="ink_ext_XXXXXX"
     transform="matrix(1.3333333,0,0,-1.3333333,0,94.666667)">
    <g
       id="g10"
       transform="scale(0.1)">
      <path
         d="m 749.426,287.621 c 0.129,1.774 0.504,3.793 1.16,6.07 0.633,2.247 1.785,4.407 3.387,6.43 1.59,2.02 3.726,3.719 6.402,5.094 2.688,1.332 6.043,2.027 10.059,2.027 6.191,0 10.8,-1.676 13.832,-4.996 3.019,-3.328 5.125,-8.199 6.332,-14.625 h -41.172 z m -21.903,9.274 c -2.265,-5.954 -3.386,-12.368 -3.386,-19.247 0,-7.156 1.097,-13.714 3.289,-19.656 2.215,-5.933 5.32,-11.07 9.359,-15.336 4.031,-4.265 8.965,-7.597 14.789,-9.898 5.813,-2.344 12.336,-3.481 19.602,-3.481 10.426,0 19.336,2.356 26.707,7.114 7.371,4.785 12.84,12.691 16.398,23.75 h -22.277 c -0.828,-2.848 -3.086,-5.578 -6.77,-8.102 -3.699,-2.57 -8.082,-3.867 -13.175,-3.867 -7.137,0 -12.594,1.879 -16.391,5.531 -3.813,3.676 -5.898,9.664 -6.242,17.863 h 66.469 c 0.472,7.114 -0.129,13.957 -1.805,20.528 -1.656,6.543 -4.356,12.367 -8.094,17.461 -3.738,5.136 -8.531,9.218 -14.359,12.218 -5.813,3.051 -12.637,4.555 -20.461,4.555 -7.028,0 -13.41,-1.234 -19.16,-3.726 -5.75,-2.504 -10.727,-5.922 -14.864,-10.262 -4.16,-4.32 -7.382,-9.492 -9.629,-15.445 z m -63.351,26.941 h -26.586 l 31.582,-92.258 h 28.199 l 31.231,92.258 H 703.441 L 683.977,260.84 h -0.344 l -19.461,62.996 z M 480.738,385.34 c 9.637,8.394 14.453,21.226 14.453,38.473 v 79.238 h -28.015 v -79.238 c 0,-9.532 -1.895,-16.504 -5.719,-20.997 -3.816,-4.429 -10.684,-6.652 -20.687,-6.652 -5.696,0 -10.254,0.805 -13.649,2.383 -3.375,1.613 -6.051,3.699 -7.941,6.266 -1.891,2.539 -3.172,5.48 -3.739,8.835 -0.601,3.332 -0.882,6.704 -0.882,10.165 v 79.238 h -28.036 v -79.238 c 0,-17.387 4.739,-30.231 14.2,-38.528 9.441,-8.328 22.789,-12.508 40.047,-12.508 16.992,0 30.339,4.211 39.968,12.563 z m 0,-144.035 c 9.637,8.402 14.453,21.203 14.453,38.461 V 359 h -28.015 v -79.234 c 0,-9.5 -1.895,-16.496 -5.719,-20.957 -3.816,-4.461 -10.684,-6.715 -20.687,-6.715 -5.696,0 -10.254,0.828 -13.649,2.449 -3.375,1.578 -6.051,3.664 -7.941,6.23 -1.891,2.54 -3.141,5.504 -3.739,8.836 -0.601,3.321 -0.882,6.707 -0.882,10.157 V 359 h -28.036 v -79.234 c 0,-17.379 4.739,-30.2 14.2,-38.547 9.441,-8.297 22.789,-12.481 40.047,-12.481 16.992,0 30.339,4.184 39.968,12.567 z m 26.821,134.32 H 532.91 V 503.059 H 507.559 V 375.625 Z m 37.078,-52.926 c -5.106,-2.441 -9.285,-6.363 -12.5,-11.715 h -0.528 v 12.844 h -24.082 v -92.25 h 25.321 v 48.383 c 0,9.402 1.547,16.141 4.632,20.223 3.118,4.117 8.114,6.179 15.024,6.179 6.039,0 10.273,-1.871 12.648,-5.64 2.375,-3.731 3.559,-9.426 3.559,-17.035 v -52.11 h 25.359 v 56.774 c 0,5.707 -0.527,10.898 -1.535,15.605 -1,4.676 -2.754,8.672 -5.246,11.973 -2.516,3.242 -5.922,5.789 -10.262,7.648 -4.343,1.84 -9.91,2.762 -16.691,2.762 -5.34,0 -10.606,-1.211 -15.699,-3.641 z m 80.492,67.305 c 2.449,4.117 3.664,9.18 3.664,15.25 0,4.277 -0.84,7.887 -2.516,10.812 -1.652,2.903 -3.843,5.329 -6.574,7.305 -2.742,1.957 -5.879,3.551 -9.383,4.707 -3.504,1.207 -7.101,2.215 -10.8,3.043 -3.555,0.817 -7.071,1.613 -10.52,2.344 -3.461,0.699 -6.516,1.48 -9.191,2.406 -2.696,0.895 -4.844,2.031 -6.5,3.461 -1.676,1.418 -2.504,3.289 -2.504,5.535 0,1.891 0.461,3.418 1.418,4.555 0.957,1.109 2.105,1.988 3.492,2.57 1.355,0.59 2.848,1.012 4.547,1.172 1.664,0.18 3.222,0.246 4.652,0.246 4.481,0 8.438,-0.847 11.77,-2.566 3.308,-1.711 5.168,-5.031 5.523,-9.91 h 24.07 c -0.437,5.707 -1.922,10.457 -4.339,14.183 -2.45,3.742 -5.536,6.738 -9.211,9.028 -3.684,2.246 -7.875,3.859 -12.563,4.804 -4.707,0.957 -9.555,1.43 -14.562,1.43 -4.985,0 -9.875,-0.441 -14.614,-1.332 -4.761,-0.883 -9.07,-2.43 -12.863,-4.645 -3.805,-2.191 -6.879,-5.199 -9.199,-9.004 -2.324,-3.828 -3.461,-8.707 -3.461,-14.648 0,-4.031 0.816,-7.437 2.48,-10.23 1.676,-2.817 3.879,-5.125 6.621,-6.997 2.743,-1.835 5.856,-3.32 9.36,-4.425 3.504,-1.141 7.117,-2.118 10.801,-2.946 9.015,-1.933 16.078,-3.836 21.128,-5.742 5.083,-1.898 7.61,-4.738 7.61,-8.543 0,-2.277 -0.539,-4.144 -1.613,-5.629 -1.051,-1.496 -2.43,-2.656 -4.039,-3.578 -1.594,-0.883 -3.375,-1.527 -5.333,-1.933 -1.964,-0.442 -3.835,-0.637 -5.632,-0.637 -2.469,0 -4.922,0.293 -7.211,0.883 -2.332,0.601 -4.383,1.535 -6.157,2.769 -1.792,1.262 -3.246,2.871 -4.375,4.805 -1.148,1.969 -1.707,4.301 -1.707,7.062 h -24.085 c 0.25,-6.179 1.648,-11.339 4.214,-15.421 2.536,-4.118 5.813,-7.415 9.789,-9.911 4.008,-2.492 8.536,-4.297 13.672,-5.339 5.094,-1.094 10.328,-1.622 15.688,-1.622 5.258,0 10.394,0.493 15.433,1.524 5.039,1.012 9.555,2.754 13.465,5.258 3.922,2.492 7.117,5.793 9.555,9.906 z m -18.988,-51.883 h 25.363 V 359 h -25.363 v -20.879 z m 0.007,-106.531 h 25.356 v 92.246 H 606.148 V 231.59 Z m 67.793,143.348 c 2.622,0.085 4.997,0.343 7.145,0.687 v 19.625 c -1.191,-0.246 -2.449,-0.41 -3.75,-0.539 -1.313,-0.129 -2.676,-0.184 -4.106,-0.184 -4.289,0 -7.144,0.723 -8.562,2.161 -1.441,1.441 -2.152,4.265 -2.152,8.566 v 45.684 h 18.57 v 16.937 h -18.57 v 27.672 h -25.34 v -99.02 c 0,-4.652 0.785,-8.402 2.355,-11.25 1.516,-2.882 3.629,-5.05 6.328,-6.609 2.645,-1.551 5.75,-2.559 9.262,-3.141 3.496,-0.535 7.223,-0.793 11.137,-0.793 2.512,0 5.082,0.063 7.683,0.204 z m 34.356,56.722 c 0.109,1.805 0.508,3.793 1.16,6.082 0.645,2.254 1.785,4.395 3.387,6.395 1.609,2.019 3.726,3.738 6.426,5.093 2.664,1.364 6.039,2.063 10.089,2.063 6.18,0 10.77,-1.676 13.821,-4.977 3.031,-3.351 5.136,-8.23 6.332,-14.656 h -41.215 z m 0,-16.047 h 66.543 c 0.496,7.114 -0.106,13.961 -1.793,20.516 -1.645,6.523 -4.375,12.348 -8.094,17.465 -3.75,5.136 -8.555,9.219 -14.367,12.219 -5.836,3.039 -12.672,4.566 -20.516,4.566 -7.027,0 -13.422,-1.234 -19.183,-3.738 -5.782,-2.496 -10.746,-5.911 -14.883,-10.254 -4.191,-4.375 -7.406,-9.5 -9.66,-15.442 -2.258,-5.957 -3.387,-12.382 -3.387,-19.281 0,-7.125 1.074,-13.66 3.289,-19.633 2.215,-5.922 5.32,-11.058 9.391,-15.359 4.019,-4.266 8.953,-7.574 14.801,-9.906 5.824,-2.313 12.367,-3.45 19.632,-3.45 10.446,0 19.368,2.375 26.739,7.125 7.406,4.782 12.863,12.661 16.429,23.739 h -22.297 c -0.851,-2.848 -3.097,-5.578 -6.793,-8.137 -3.664,-2.535 -8.07,-3.836 -13.195,-3.836 -7.137,0 -12.598,1.871 -16.422,5.547 -3.793,3.707 -5.879,9.629 -6.234,17.859 z m 129.992,30.95 c 1.688,-0.18 3.106,-0.395 4.289,-0.622 v 23.555 c -2.031,0.602 -3.867,0.883 -5.515,0.883 -3.235,0 -6.329,-0.473 -9.286,-1.43 -2.984,-0.945 -5.769,-2.308 -8.402,-4.019 -2.602,-1.719 -4.91,-3.793 -6.941,-6.235 -2.043,-2.437 -3.633,-5.09 -4.825,-7.937 h -0.355 v 17.117 h -24.106 v -92.25 H 808.5 v 41.59 c 0,4.16 0.418,8.015 1.234,11.598 0.84,3.578 2.246,6.683 4.204,9.371 1.976,2.652 4.554,4.781 7.769,6.328 3.215,1.547 7.137,2.32 11.777,2.32 1.547,0 3.149,-0.098 4.805,-0.269 z m 39.172,-144.036 c 1.668,-0.183 3.086,-0.379 4.266,-0.632 v 23.566 c -2.02,0.602 -3.856,0.879 -5.524,0.879 -3.223,0 -6.308,-0.492 -9.262,-1.43 -2.988,-0.945 -5.781,-2.289 -8.418,-4.015 -2.597,-1.723 -4.941,-3.805 -6.941,-6.235 -2.031,-2.441 -3.633,-5.105 -4.836,-7.941 h -0.344 v 17.109 H 822.32 v -92.25 h 25.328 v 41.567 c 0,4.179 0.422,8.05 1.247,11.628 0.828,3.579 2.238,6.672 4.203,9.36 1.968,2.668 4.547,4.785 7.769,6.34 3.203,1.547 7.125,2.312 11.781,2.312 1.524,0 3.137,-0.097 4.813,-0.258 z m 89.746,-56.57 c 2.438,4.106 3.688,9.176 3.688,15.25 0,4.297 -0.864,7.898 -2.516,10.801 -1.676,2.91 -3.871,5.351 -6.598,7.316 -2.754,1.957 -5.879,3.516 -9.383,4.731 -3.503,1.191 -7.117,2.203 -10.789,3.019 -3.578,0.824 -7.074,1.633 -10.523,2.321 -3.457,0.73 -6.512,1.503 -9.188,2.441 -2.687,0.879 -4.835,2.019 -6.5,3.48 -1.687,1.375 -2.515,3.254 -2.515,5.5 0,1.903 0.461,3.418 1.43,4.559 0.945,1.148 2.128,1.988 3.468,2.602 1.375,0.57 2.895,0.976 4.559,1.148 1.664,0.184 3.215,0.246 4.633,0.246 4.523,0 8.457,-0.824 11.765,-2.566 3.344,-1.742 5.203,-5.032 5.547,-9.91 h 24.094 c -0.473,5.726 -1.945,10.445 -4.387,14.187 -2.418,3.762 -5.5,6.738 -9.176,9.016 -3.707,2.257 -7.898,3.867 -12.593,4.812 -4.7,0.949 -9.524,1.418 -14.52,1.418 -5.008,0 -9.887,-0.426 -14.648,-1.32 -4.762,-0.922 -9.016,-2.481 -12.844,-4.621 -3.824,-2.223 -6.875,-5.223 -9.176,-9.016 -2.312,-3.848 -3.484,-8.726 -3.484,-14.68 0,-4.007 0.828,-7.425 2.515,-10.218 1.633,-2.817 3.86,-5.118 6.567,-6.965 2.742,-1.86 5.89,-3.344 9.394,-4.473 3.512,-1.129 7.102,-2.094 10.789,-2.922 9.039,-1.945 16.086,-3.836 21.137,-5.738 5.031,-1.891 7.578,-4.75 7.578,-8.543 0,-2.277 -0.539,-4.148 -1.59,-5.644 -1.086,-1.481 -2.429,-2.684 -4.019,-3.536 -1.613,-0.922 -3.406,-1.589 -5.344,-2 -1.976,-0.406 -3.855,-0.597 -5.629,-0.597 -2.496,0 -4.902,0.277 -7.234,0.879 -2.32,0.601 -4.363,1.527 -6.156,2.785 -1.774,1.234 -3.258,2.824 -4.375,4.812 -1.118,1.934 -1.688,4.313 -1.688,7.028 h -24.094 c 0.258,-6.168 1.633,-11.336 4.203,-15.442 2.559,-4.094 5.813,-7.383 9.79,-9.887 4,-2.492 8.543,-4.296 13.66,-5.339 5.117,-1.078 10.371,-1.625 15.687,-1.625 5.27,0 10.395,0.515 15.457,1.539 5.039,1 9.555,2.738 13.477,5.242 3.91,2.504 7.101,5.793 9.531,9.91 z m 37.283,77.879 H 979.137 V 231.59 h 25.353 v 92.246 z m -25.345,14.285 h 25.345 V 359 h -25.345 v -20.879 z m 74.455,-107.23 c 2.62,0.117 5.02,0.343 7.15,0.699 v 19.621 c -1.19,-0.227 -2.44,-0.398 -3.75,-0.535 -1.3,-0.129 -2.69,-0.164 -4.11,-0.164 -4.29,0 -7.15,0.699 -8.56,2.117 -1.43,1.43 -2.13,4.309 -2.13,8.586 v 45.687 h 18.55 v 16.934 h -18.55 v 27.676 h -25.34 v -99.067 c 0,-4.621 0.74,-8.39 2.3,-11.226 1.55,-2.84 3.66,-5.051 6.33,-6.602 2.69,-1.547 5.77,-2.59 9.27,-3.105 3.54,-0.571 7.24,-0.817 11.18,-0.817 2.48,0 5.04,0.067 7.66,0.196 z m 103.59,92.937 h -26.21 l -20.17,-63.148 h -0.37 l -20.86,63.148 h -26.95 l 32.29,-86.543 c 0.73,-1.773 1.09,-3.676 1.09,-5.695 0,-2.742 -0.81,-5.227 -2.42,-7.473 -1.62,-2.277 -4.06,-3.59 -7.42,-3.929 -2.48,-0.122 -4.96,-0.067 -7.49,0.148 -2.49,0.258 -4.92,0.484 -7.33,0.699 v -20.847 c 2.65,-0.239 5.23,-0.465 7.78,-0.645 2.56,-0.152 5.15,-0.25 7.78,-0.25 8.67,0 15.45,1.613 20.32,4.805 4.87,3.234 8.67,8.597 11.43,16.09 l 38.53,103.64 v 0"
         style="fill:#041e42;fill-opacity:1;fill-rule:nonzero;stroke:none"
         id="path12" />
      <path
         d="m 391.488,179.086 c -14.437,-5.051 -31.367,-7.594 -50.32,-7.594 -28.848,0 -57.98,8.266 -72.473,20.598 l -0.129,0.098 c -11.691,10.968 -18.136,28.582 -18.136,49.589 l -0.012,265.192 c 0,66.465 -48.34,86.058 -70.016,86.058 H 95.4727 C 111.297,586.473 122.453,570.91 122.453,552.723 L 122.43,267.691 c 0,-28.64 4.996,-42.535 16.316,-57.183 28.801,-36.84 90.883,-60.672 158.117,-60.672 38.77,0 67.094,6.969 95.059,22.707 20.621,11.613 29.289,21.254 32.566,25.848 0,0 0.434,0.574 0.184,0.785 -0.227,0.215 -0.77,-0.418 -0.77,-0.418 -8.336,-8.449 -19.207,-15.039 -32.414,-19.672 z m 63.844,358.219 c -25.566,51.133 -64.758,55.722 -64.758,55.722 h -36.875 c 0,0 39.203,-4.589 64.754,-55.722 h 36.879 z m 54.758,55.722 h -44.664 c -9.274,-1.457 -17.465,-5.382 -23.828,-9.449 -1.028,-0.672 -2.004,-1.34 -2.93,-1.984 0,0 18.762,-15.711 16.656,-44.289 9.418,21.8 16.899,48.082 54.766,55.722 v 0"
         style="fill:#041e42;fill-opacity:1;fill-rule:nonzero;stroke:none"
         id="path14" />
    </g>
  </g>
</svg>
